<?xml version="1.0" encoding="UTF-8"?>
<svg xmlns="http://www.w3.org/2000/svg"
     xmlns:xlink="http://www.w3.org/1999/xlink"
     xmlns:gadfly="http://www.gadflyjl.org/ns"
     version="1.2"
     width="160mm" height="100mm" viewBox="0 0 160 100"
     stroke="none"
     fill="#000000"
     stroke-width="0.3"
     font-size="3.88"
>
<defs>
  <marker id="arrow" markerWidth="15" markerHeight="7" refX="5" refY="3.5" orient="auto" markerUnits="strokeWidth">
    <path d="M0,0 L15,3.5 L0,7 z" stroke="context-stroke" fill="context-stroke"/>
  </marker>
</defs>
<g class="plotroot xscalable yscalable" id="img-52d72e70-1">
  <g font-size="2.51" font-family="'PT Sans','Helvetica Neue','Helvetica',sans-serif" fill="#564A55" stroke="#000000" stroke-opacity="0.000" id="img-52d72e70-2">
    <g transform="translate(86.18,92.53)">
      <g class="primitive">
        <text text-anchor="middle" dy="0.6em">年份</text>
      </g>
    </g>
  </g>
  <g class="guide xlabels" font-size="2.38" font-family="'PT Sans Caption','Helvetica Neue','Helvetica',sans-serif" fill="#6C606B" id="img-52d72e70-3">
    <g transform="translate(16.35,81.83)">
      <g class="primitive">
        <text text-anchor="end" dy="0.35em" transform="rotate(-90,0, 0)">2006</text>
      </g>
    </g>
    <g transform="translate(21.17,81.83)">
      <g class="primitive">
        <text text-anchor="end" dy="0.35em" transform="rotate(-90,0, 0)">2007</text>
      </g>
    </g>
    <g transform="translate(25.98,81.83)">
      <g class="primitive">
        <text text-anchor="end" dy="0.35em" transform="rotate(-90,0, 0)">2008</text>
      </g>
    </g>
    <g transform="translate(30.8,81.83)">
      <g class="primitive">
        <text text-anchor="end" dy="0.35em" transform="rotate(-90,0, 0)">2009</text>
      </g>
    </g>
    <g transform="translate(35.61,81.83)">
      <g class="primitive">
        <text text-anchor="end" dy="0.35em" transform="rotate(-90,0, 0)">2010</text>
      </g>
    </g>
    <g transform="translate(40.43,81.83)">
      <g class="primitive">
        <text text-anchor="end" dy="0.35em" transform="rotate(-90,0, 0)">2011</text>
      </g>
    </g>
    <g transform="translate(45.24,81.83)">
      <g class="primitive">
        <text text-anchor="end" dy="0.35em" transform="rotate(-90,0, 0)">2012</text>
      </g>
    </g>
    <g transform="translate(50.06,81.83)">
      <g class="primitive">
        <text text-anchor="end" dy="0.35em" transform="rotate(-90,0, 0)">2013</text>
      </g>
    </g>
    <g transform="translate(54.87,81.83)">
      <g class="primitive">
        <text text-anchor="end" dy="0.35em" transform="rotate(-90,0, 0)">2014</text>
      </g>
    </g>
    <g transform="translate(59.69,81.83)">
      <g class="primitive">
        <text text-anchor="end" dy="0.35em" transform="rotate(-90,0, 0)">2015</text>
      </g>
    </g>
    <g transform="translate(64.51,81.83)">
      <g class="primitive">
        <text text-anchor="end" dy="0.35em" transform="rotate(-90,0, 0)">2016</text>
      </g>
    </g>
    <g transform="translate(69.32,81.83)">
      <g class="primitive">
        <text text-anchor="end" dy="0.35em" transform="rotate(-90,0, 0)">2017</text>
      </g>
    </g>
    <g transform="translate(74.14,81.83)">
      <g class="primitive">
        <text text-anchor="end" dy="0.35em" transform="rotate(-90,0, 0)">2018</text>
      </g>
    </g>
    <g transform="translate(78.95,81.83)">
      <g class="primitive">
        <text text-anchor="end" dy="0.35em" transform="rotate(-90,0, 0)">2019</text>
      </g>
    </g>
    <g transform="translate(83.77,81.83)">
      <g class="primitive">
        <text text-anchor="end" dy="0.35em" transform="rotate(-90,0, 0)">2020</text>
      </g>
    </g>
    <g transform="translate(88.58,81.83)">
      <g class="primitive">
        <text text-anchor="end" dy="0.35em" transform="rotate(-90,0, 0)">2021</text>
      </g>
    </g>
    <g transform="translate(93.4,81.83)">
      <g class="primitive">
        <text text-anchor="end" dy="0.35em" transform="rotate(-90,0, 0)">2022</text>
      </g>
    </g>
    <g transform="translate(98.21,81.83)">
      <g class="primitive">
        <text text-anchor="end" dy="0.35em" transform="rotate(-90,0, 0)">2023</text>
      </g>
    </g>
    <g transform="translate(103.03,81.83)">
      <g class="primitive">
        <text text-anchor="end" dy="0.35em" transform="rotate(-90,0, 0)">2024</text>
      </g>
    </g>
    <g transform="translate(107.84,81.83)">
      <g class="primitive">
        <text text-anchor="end" dy="0.35em" transform="rotate(-90,0, 0)">2025</text>
      </g>
    </g>
    <g transform="translate(112.66,81.83)">
      <g class="primitive">
        <text text-anchor="end" dy="0.35em" transform="rotate(-90,0, 0)">2026</text>
      </g>
    </g>
    <g transform="translate(117.48,81.83)">
      <g class="primitive">
        <text text-anchor="end" dy="0.35em" transform="rotate(-90,0, 0)">2027</text>
      </g>
    </g>
    <g transform="translate(122.29,81.83)">
      <g class="primitive">
        <text text-anchor="end" dy="0.35em" transform="rotate(-90,0, 0)">2028</text>
      </g>
    </g>
    <g transform="translate(127.11,81.83)">
      <g class="primitive">
        <text text-anchor="end" dy="0.35em" transform="rotate(-90,0, 0)">2029</text>
      </g>
    </g>
    <g transform="translate(131.92,81.83)">
      <g class="primitive">
        <text text-anchor="end" dy="0.35em" transform="rotate(-90,0, 0)">2030</text>
      </g>
    </g>
    <g transform="translate(136.74,81.83)">
      <g class="primitive">
        <text text-anchor="end" dy="0.35em" transform="rotate(-90,0, 0)">2031</text>
      </g>
    </g>
    <g transform="translate(141.55,81.83)">
      <g class="primitive">
        <text text-anchor="end" dy="0.35em" transform="rotate(-90,0, 0)">2032</text>
      </g>
    </g>
    <g transform="translate(146.37,81.83)">
      <g class="primitive">
        <text text-anchor="end" dy="0.35em" transform="rotate(-90,0, 0)">2033</text>
      </g>
    </g>
    <g transform="translate(151.18,81.83)">
      <g class="primitive">
        <text text-anchor="end" dy="0.35em" transform="rotate(-90,0, 0)">2034</text>
      </g>
    </g>
    <g transform="translate(156,81.83)">
      <g class="primitive">
        <text text-anchor="end" dy="0.35em" transform="rotate(-90,0, 0)">2035</text>
      </g>
    </g>
  </g>
  <g clip-path="url(#img-52d72e70-4)">
    <g id="img-52d72e70-5">
      <g pointer-events="visible" stroke-width="0.3" fill="#000000" fill-opacity="0.000" stroke="#000000" stroke-opacity="0.000" class="guide background" id="img-52d72e70-6">
        <g transform="translate(86.18,41.41)" id="img-52d72e70-7">
          <path d="M-71.82,-39.41 L71.82,-39.41 71.82,39.41 -71.82,39.41  z" class="primitive"/>
        </g>
      </g>
      <g class="guide ygridlines xfixed" stroke-dasharray="0.5,0.5" stroke-width="0.2" stroke="#D0D0E0" id="img-52d72e70-8">
        <g transform="translate(86.18,78.83)" id="img-52d72e70-9">
          <path fill="none" d="M-71.82,0 L71.82,0 " class="primitive"/>
        </g>
        <g transform="translate(86.18,60.12)" id="img-52d72e70-10">
          <path fill="none" d="M-71.82,0 L71.82,0 " class="primitive"/>
        </g>
        <g transform="translate(86.18,41.41)" id="img-52d72e70-11">
          <path fill="none" d="M-71.82,0 L71.82,0 " class="primitive"/>
        </g>
        <g transform="translate(86.18,22.71)" id="img-52d72e70-12">
          <path fill="none" d="M-71.82,0 L71.82,0 " class="primitive"/>
        </g>
        <g transform="translate(86.18,4)" id="img-52d72e70-13">
          <path fill="none" d="M-71.82,0 L71.82,0 " class="primitive"/>
        </g>
      </g>
      <g class="guide xgridlines yfixed" stroke-dasharray="0.5,0.5" stroke-width="0.2" stroke="#D0D0E0" id="img-52d72e70-14">
        <g transform="translate(16.35,41.41)" id="img-52d72e70-15">
          <path fill="none" d="M0,-39.41 L0,39.41 " class="primitive"/>
        </g>
        <g transform="translate(21.17,41.41)" id="img-52d72e70-16">
          <path fill="none" d="M0,-39.41 L0,39.41 " class="primitive"/>
        </g>
        <g transform="translate(25.98,41.41)" id="img-52d72e70-17">
          <path fill="none" d="M0,-39.41 L0,39.41 " class="primitive"/>
        </g>
        <g transform="translate(30.8,41.41)" id="img-52d72e70-18">
          <path fill="none" d="M0,-39.41 L0,39.41 " class="primitive"/>
        </g>
        <g transform="translate(35.61,41.41)" id="img-52d72e70-19">
          <path fill="none" d="M0,-39.41 L0,39.41 " class="primitive"/>
        </g>
        <g transform="translate(40.43,41.41)" id="img-52d72e70-20">
          <path fill="none" d="M0,-39.41 L0,39.41 " class="primitive"/>
        </g>
        <g transform="translate(45.24,41.41)" id="img-52d72e70-21">
          <path fill="none" d="M0,-39.41 L0,39.41 " class="primitive"/>
        </g>
        <g transform="translate(50.06,41.41)" id="img-52d72e70-22">
          <path fill="none" d="M0,-39.41 L0,39.41 " class="primitive"/>
        </g>
        <g transform="translate(54.87,41.41)" id="img-52d72e70-23">
          <path fill="none" d="M0,-39.41 L0,39.41 " class="primitive"/>
        </g>
        <g transform="translate(59.69,41.41)" id="img-52d72e70-24">
          <path fill="none" d="M0,-39.41 L0,39.41 " class="primitive"/>
        </g>
        <g transform="translate(64.51,41.41)" id="img-52d72e70-25">
          <path fill="none" d="M0,-39.41 L0,39.41 " class="primitive"/>
        </g>
        <g transform="translate(69.32,41.41)" id="img-52d72e70-26">
          <path fill="none" d="M0,-39.41 L0,39.41 " class="primitive"/>
        </g>
        <g transform="translate(74.14,41.41)" id="img-52d72e70-27">
          <path fill="none" d="M0,-39.41 L0,39.41 " class="primitive"/>
        </g>
        <g transform="translate(78.95,41.41)" id="img-52d72e70-28">
          <path fill="none" d="M0,-39.41 L0,39.41 " class="primitive"/>
        </g>
        <g transform="translate(83.77,41.41)" id="img-52d72e70-29">
          <path fill="none" d="M0,-39.41 L0,39.41 " class="primitive"/>
        </g>
        <g transform="translate(88.58,41.41)" id="img-52d72e70-30">
          <path fill="none" d="M0,-39.41 L0,39.41 " class="primitive"/>
        </g>
        <g transform="translate(93.4,41.41)" id="img-52d72e70-31">
          <path fill="none" d="M0,-39.41 L0,39.41 " class="primitive"/>
        </g>
        <g transform="translate(98.21,41.41)" id="img-52d72e70-32">
          <path fill="none" d="M0,-39.41 L0,39.41 " class="primitive"/>
        </g>
        <g transform="translate(103.03,41.41)" id="img-52d72e70-33">
          <path fill="none" d="M0,-39.41 L0,39.41 " class="primitive"/>
        </g>
        <g transform="translate(107.84,41.41)" id="img-52d72e70-34">
          <path fill="none" d="M0,-39.41 L0,39.41 " class="primitive"/>
        </g>
        <g transform="translate(112.66,41.41)" id="img-52d72e70-35">
          <path fill="none" d="M0,-39.41 L0,39.41 " class="primitive"/>
        </g>
        <g transform="translate(117.48,41.41)" id="img-52d72e70-36">
          <path fill="none" d="M0,-39.41 L0,39.41 " class="primitive"/>
        </g>
        <g transform="translate(122.29,41.41)" id="img-52d72e70-37">
          <path fill="none" d="M0,-39.41 L0,39.41 " class="primitive"/>
        </g>
        <g transform="translate(127.11,41.41)" id="img-52d72e70-38">
          <path fill="none" d="M0,-39.41 L0,39.41 " class="primitive"/>
        </g>
        <g transform="translate(131.92,41.41)" id="img-52d72e70-39">
          <path fill="none" d="M0,-39.41 L0,39.41 " class="primitive"/>
        </g>
        <g transform="translate(136.74,41.41)" id="img-52d72e70-40">
          <path fill="none" d="M0,-39.41 L0,39.41 " class="primitive"/>
        </g>
        <g transform="translate(141.55,41.41)" id="img-52d72e70-41">
          <path fill="none" d="M0,-39.41 L0,39.41 " class="primitive"/>
        </g>
        <g transform="translate(146.37,41.41)" id="img-52d72e70-42">
          <path fill="none" d="M0,-39.41 L0,39.41 " class="primitive"/>
        </g>
        <g transform="translate(151.18,41.41)" id="img-52d72e70-43">
          <path fill="none" d="M0,-39.41 L0,39.41 " class="primitive"/>
        </g>
        <g transform="translate(156,41.41)" id="img-52d72e70-44">
          <path fill="none" d="M0,-39.41 L0,39.41 " class="primitive"/>
        </g>
      </g>
      <g class="plotpanel" id="img-52d72e70-45">
        <metadata>
          <boundingbox value="14.349999999999994mm 2.0mm 143.65mm 78.82777777777778mm"/>
          <unitbox value="0.5846759756534192 20.53456084341822 29.83064804869316 -21.06912168683644"/>
        </metadata>
        <g stroke-width="0.3" class="geometry" fill-opacity="1" fill="#FAD8F7" id="img-52d72e70-46">
          <g transform="translate(86.18,10.98)" id="img-52d72e70-47">
            <path d="M69.82,-44.35 L65.01,-41.56 60.19,-38.66 55.38,-35.65 50.56,-32.52 45.75,-29.28 40.93,-25.92 36.12,-22.44 31.3,-18.86 26.49,-15.16 21.67,-11.35 16.85,-7.45 12.04,-3.44 7.22,0.66 2.41,4.84 -2.41,9.09 -7.22,13.41 -12.04,17.77 -16.85,22.16 -21.67,26.56 -26.49,30.95 -31.3,35.3 -36.12,39.58 -40.93,43.76 -45.75,47.79 -50.56,51.64 -55.38,55.25 -60.19,58.57 -65.01,61.55 -69.83,64.11 -69.83,63.11 -65.01,59.89 -60.19,55.99 -55.38,51.56 -50.56,46.71 -45.75,41.54 -40.93,36.14 -36.12,30.57 -31.3,24.89 -26.49,19.16 -21.67,13.42 -16.85,7.7 -12.04,2.03 -7.22,-3.55 -2.41,-9.03 2.41,-14.4 7.22,-19.64 12.04,-24.74 16.85,-29.69 21.67,-34.48 26.49,-39.12 31.3,-43.59 36.12,-47.91 40.93,-52.06 45.75,-56.06 50.56,-59.89 55.38,-63.58 60.19,-67.11 65.01,-70.49 69.82,-73.72  z" class="primitive"/>
          </g>
        </g>
        <g stroke-width="0.3" fill="#000000" fill-opacity="0.000" class="geometry" id="img-52d72e70-48">
          <g class="color_RGB{N0f8}(0.933,0.0,0.933)" stroke-dasharray="2,1" stroke="#EE00EE" id="img-52d72e70-49">
            <g transform="translate(86.18,10.98)" id="img-52d72e70-50">
              <path fill="none" d="M-69.82,63.61 L-65.01,60.72 -60.19,57.28 -55.38,53.4 -50.56,49.17 -45.75,44.67 -40.93,39.95 -36.12,35.07 -31.3,30.1 -26.49,25.06 -21.67,19.99 -16.85,14.93 -12.04,9.9 -7.22,4.93 -2.41,0.03 2.41,-4.78 7.22,-9.49 12.04,-14.09 16.85,-18.57 21.67,-22.92 26.49,-27.14 31.3,-31.22 36.12,-35.18 40.93,-38.99 45.75,-42.67 50.56,-46.21 55.38,-49.61 60.19,-52.88 65.01,-56.03 69.82,-59.04 " class="primitive"/>
            </g>
          </g>
        </g>
        <g class="geometry" id="img-52d72e70-51">
          <g class="color_RGB{N0f8}(0.333,0.102,0.545)" stroke-dasharray="2,1" stroke-width="0.13" stroke="#551A8B" id="img-52d72e70-52">
            <g transform="translate(63.5,55.43)" id="img-52d72e70-53">
              <path fill="none" d="M0,-23.4 L0,23.4 " class="primitive"/>
            </g>
            <g transform="translate(111.07,32.03)" id="img-52d72e70-54">
              <path fill="none" d="M0,-46.8 L0,46.8 " class="primitive"/>
            </g>
          </g>
        </g>
        <g class="geometry" id="img-52d72e70-55">
          <g stroke-width="0.3" id="img-52d72e70-56">
            <g class="color_RGBA{Float32}(0.0f0,0.0f0,1.0f0,1.0f0)" fill-opacity="1" stroke="#FFFFFF" fill="#0000FF" id="img-52d72e70-57">
              <g class="marker" id="img-52d72e70-58">
                <g transform="translate(83.77,11.01)" id="img-52d72e70-59">
                  <circle cx="0" cy="0" r="0.9" class="primitive"/>
                </g>
              </g>
            </g>
            <g class="color_RGBA{Float32}(0.0f0,0.0f0,1.0f0,1.0f0)" fill-opacity="1" stroke="#FFFFFF" fill="#0000FF" id="img-52d72e70-60">
              <g class="marker" id="img-52d72e70-61">
                <g transform="translate(78.95,16.15)" id="img-52d72e70-62">
                  <circle cx="0" cy="0" r="0.9" class="primitive"/>
                </g>
              </g>
            </g>
            <g class="color_RGBA{Float32}(0.0f0,0.0f0,1.0f0,1.0f0)" fill-opacity="1" stroke="#FFFFFF" fill="#0000FF" id="img-52d72e70-63">
              <g class="marker" id="img-52d72e70-64">
                <g transform="translate(74.14,21.34)" id="img-52d72e70-65">
                  <circle cx="0" cy="0" r="0.9" class="primitive"/>
                </g>
              </g>
            </g>
            <g class="color_RGBA{Float32}(0.0f0,0.0f0,1.0f0,1.0f0)" fill-opacity="1" stroke="#FFFFFF" fill="#0000FF" id="img-52d72e70-66">
              <g class="marker" id="img-52d72e70-67">
                <g transform="translate(69.32,26.19)" id="img-52d72e70-68">
                  <circle cx="0" cy="0" r="0.9" class="primitive"/>
                </g>
              </g>
            </g>
            <g class="color_RGBA{Float32}(0.0f0,0.0f0,1.0f0,1.0f0)" fill-opacity="1" stroke="#FFFFFF" fill="#0000FF" id="img-52d72e70-69">
              <g class="marker" id="img-52d72e70-70">
                <g transform="translate(64.51,31.02)" id="img-52d72e70-71">
                  <circle cx="0" cy="0" r="0.9" class="primitive"/>
                </g>
              </g>
            </g>
            <g class="color_RGBA{Float32}(0.0f0,0.0f0,1.0f0,1.0f0)" fill-opacity="1" stroke="#FFFFFF" fill="#0000FF" id="img-52d72e70-72">
              <g class="marker" id="img-52d72e70-73">
                <g transform="translate(59.69,35.96)" id="img-52d72e70-74">
                  <circle cx="0" cy="0" r="0.9" class="primitive"/>
                </g>
              </g>
            </g>
            <g class="color_RGBA{Float32}(0.0f0,0.0f0,1.0f0,1.0f0)" fill-opacity="1" stroke="#FFFFFF" fill="#0000FF" id="img-52d72e70-75">
              <g class="marker" id="img-52d72e70-76">
                <g transform="translate(54.87,41.32)" id="img-52d72e70-77">
                  <circle cx="0" cy="0" r="0.9" class="primitive"/>
                </g>
              </g>
            </g>
            <g class="color_RGBA{Float32}(0.0f0,0.0f0,1.0f0,1.0f0)" fill-opacity="1" stroke="#FFFFFF" fill="#0000FF" id="img-52d72e70-78">
              <g class="marker" id="img-52d72e70-79">
                <g transform="translate(50.06,46.4)" id="img-52d72e70-80">
                  <circle cx="0" cy="0" r="0.9" class="primitive"/>
                </g>
              </g>
            </g>
            <g class="color_RGBA{Float32}(0.0f0,0.0f0,1.0f0,1.0f0)" fill-opacity="1" stroke="#FFFFFF" fill="#0000FF" id="img-52d72e70-81">
              <g class="marker" id="img-52d72e70-82">
                <g transform="translate(45.24,51.17)" id="img-52d72e70-83">
                  <circle cx="0" cy="0" r="0.9" class="primitive"/>
                </g>
              </g>
            </g>
            <g class="color_RGBA{Float32}(0.0f0,0.0f0,1.0f0,1.0f0)" fill-opacity="1" stroke="#FFFFFF" fill="#0000FF" id="img-52d72e70-84">
              <g class="marker" id="img-52d72e70-85">
                <g transform="translate(40.43,55.64)" id="img-52d72e70-86">
                  <circle cx="0" cy="0" r="0.9" class="primitive"/>
                </g>
              </g>
            </g>
            <g class="color_RGBA{Float32}(0.0f0,0.0f0,1.0f0,1.0f0)" fill-opacity="1" stroke="#FFFFFF" fill="#0000FF" id="img-52d72e70-87">
              <g class="marker" id="img-52d72e70-88">
                <g transform="translate(35.61,60.03)" id="img-52d72e70-89">
                  <circle cx="0" cy="0" r="0.9" class="primitive"/>
                </g>
              </g>
            </g>
            <g class="color_RGBA{Float32}(0.0f0,0.0f0,1.0f0,1.0f0)" fill-opacity="1" stroke="#FFFFFF" fill="#0000FF" id="img-52d72e70-90">
              <g class="marker" id="img-52d72e70-91">
                <g transform="translate(30.8,64.03)" id="img-52d72e70-92">
                  <circle cx="0" cy="0" r="0.9" class="primitive"/>
                </g>
              </g>
            </g>
            <g class="color_RGBA{Float32}(0.0f0,0.0f0,1.0f0,1.0f0)" fill-opacity="1" stroke="#FFFFFF" fill="#0000FF" id="img-52d72e70-93">
              <g class="marker" id="img-52d72e70-94">
                <g transform="translate(25.98,68.21)" id="img-52d72e70-95">
                  <circle cx="0" cy="0" r="0.9" class="primitive"/>
                </g>
              </g>
            </g>
            <g class="color_RGBA{Float32}(0.0f0,0.0f0,1.0f0,1.0f0)" fill-opacity="1" stroke="#FFFFFF" fill="#0000FF" id="img-52d72e70-96">
              <g class="marker" id="img-52d72e70-97">
                <g transform="translate(21.17,71.75)" id="img-52d72e70-98">
                  <circle cx="0" cy="0" r="0.9" class="primitive"/>
                </g>
              </g>
            </g>
            <g class="color_RGBA{Float32}(0.0f0,0.0f0,1.0f0,1.0f0)" fill-opacity="1" stroke="#FFFFFF" fill="#0000FF" id="img-52d72e70-99">
              <g class="marker" id="img-52d72e70-100">
                <g transform="translate(16.35,75.09)" id="img-52d72e70-101">
                  <circle cx="0" cy="0" r="0.9" class="primitive"/>
                </g>
              </g>
            </g>
          </g>
        </g>
        <g stroke-width="0.3" fill="#000000" fill-opacity="0.000" class="geometry" id="img-52d72e70-102">
          <g class="color_RGB{N0f8}(0.0,0.0,1.0)" stroke-dasharray="none" stroke="#0000FF" id="img-52d72e70-103">
            <g transform="translate(50.06,45.02)" id="img-52d72e70-104">
              <path fill="none" d="M-33.71,30.07 L-28.89,26.73 -24.08,23.19 -19.26,19.01 -14.45,15.01 -9.63,10.62 -4.82,6.15 0,1.38 4.82,-3.7 9.63,-9.06 14.45,-14 19.26,-18.83 24.08,-23.68 28.89,-28.87 33.71,-34.01 " class="primitive"/>
            </g>
          </g>
        </g>
        <g class="geometry" id="img-52d72e70-105">
          <g class="color_RGB{N0f8}(1.0,0.0,0.0)" stroke-dasharray="4,1" stroke-width="0.13" stroke="#FF0000" id="img-52d72e70-106">
            <g transform="translate(83.77,22.71)" id="img-52d72e70-107">
              <path fill="none" d="M72.23,0 L-72.23,0 " class="primitive"/>
            </g>
          </g>
        </g>
        <g class="geometry" id="img-52d72e70-108">
          <g stroke-width="0.3" id="img-52d72e70-109">
            <g class="color_RGBA{Float32}(0.0f0,0.0f0,1.0f0,1.0f0)" fill-opacity="1" stroke="#FFFFFF" fill="#0000FF" id="img-52d72e70-110">
              <g class="marker" id="img-52d72e70-111">
                <g transform="translate(83.77,11.01)" id="img-52d72e70-112">
                  <path d="M-0.8,-0 L-2,-2 0,-0.8 2,-2 0.8,-0 2,2 0,0.8 -2,2  z" class="primitive"/>
                </g>
              </g>
            </g>
          </g>
        </g>
        <g class="geometry" stroke="#000000" stroke-opacity="0.000" fill="#0000FF" font-size="2.65" font-family="'PT Sans Caption','Helvetica Neue','Helvetica',sans-serif" id="img-52d72e70-113">
          <g class="marker" id="img-52d72e70-114">
            <g transform="translate(83.77,11.01)" id="img-52d72e70-115">
              <g class="primitive">
                <text dy="0.35em" transform="translate(3,0)">当前动力水平</text>
              </g>
            </g>
          </g>
        </g>
      </g>
      <g class="geometry" id="img-52d72e70-116">
        <g font-size="2.65" fill="#551A8B" id="img-52d72e70-117">
          <g transform="translate(35.11,75.83)" id="img-52d72e70-118">
            <g class="primitive">
              <text dy="-0em">发展期</text>
            </g>
          </g>
          <g transform="translate(84.88,75.83)" id="img-52d72e70-119">
            <g class="primitive">
              <text dy="-0em">蓬勃期</text>
            </g>
          </g>
          <g transform="translate(131.13,75.83)" id="img-52d72e70-120">
            <g class="primitive">
              <text dy="-0em">持续期</text>
            </g>
          </g>
        </g>
      </g>
      <g class="geometry" id="img-52d72e70-121">
        <g font-size="2.65" fill="#FF0000" id="img-52d72e70-122">
          <g transform="translate(18.76,21.96)" id="img-52d72e70-123">
            <g class="primitive">
              <text dy="-0em">学科总体发文动力参考线</text>
            </g>
          </g>
        </g>
      </g>
      <g class="geometry" id="img-52d72e70-124">
        <g font-size="2.51" fill="#551A8B" id="img-52d72e70-125">
          <g transform="translate(22.97,13.82)" id="img-52d72e70-126">
            <g class="primitive">
              <text dy="-0em">拟合拐点年份：2016</text>
            </g>
          </g>
        </g>
      </g>
      <g class="geometry" id="img-52d72e70-127">
        <g font-size="2.47" id="img-52d72e70-128">
          <g class="guide colorkey" id="img-52d72e70-129">
            <g fill="#4C404B" font-size="2.82" font-family="'PT Sans','Helvetica Neue','Helvetica',sans-serif" id="img-52d72e70-130">
              <g transform="translate(22.4,4.6)" id="img-52d72e70-131">
                <g class="primitive">
                  <text dy="0.35em">实际曲线</text>
                </g>
              </g>
              <g transform="translate(22.4,8.78)" id="img-52d72e70-132">
                <g class="primitive">
                  <text dy="0.35em">拟合曲线（K = 50.038; b = 0.850; γ = 0.054）</text>
                </g>
              </g>
            </g>
            <g stroke-width="0.3" id="img-52d72e70-133">
              <g stroke="#FFFFFF" fill-opacity="1" fill="#EE00EE" id="img-52d72e70-134">
                <g transform="translate(19.31,8.78)" id="img-52d72e70-135">
                  <circle cx="0" cy="0" r="0.9" class="primitive"/>
                </g>
              </g>
              <g stroke="#FFFFFF" fill-opacity="1" fill="#0000FF" id="img-52d72e70-136">
                <g transform="translate(19.31,4.6)" id="img-52d72e70-137">
                  <circle cx="0" cy="0" r="0.9" class="primitive"/>
                </g>
              </g>
            </g>
            <g fill="#362A35" font-size="3.88" font-family="'PT Sans','Helvetica Neue','Helvetica',sans-serif" stroke="#000000" stroke-opacity="0.000" id="img-52d72e70-138">
              <g transform="translate(18.22,1.02)" id="img-52d72e70-139">
                <g class="primitive">
                  <text dy="-0em"></text>
                </g>
              </g>
            </g>
          </g>
        </g>
      </g>
    </g>
  </g>
  <g class="guide ylabels" font-size="2.38" font-family="'PT Sans Caption','Helvetica Neue','Helvetica',sans-serif" fill="#6C606B" id="img-52d72e70-140">
    <g transform="translate(13.35,78.83)" id="img-52d72e70-141">
      <g class="primitive">
        <text text-anchor="end" dy="0.35em">0</text>
      </g>
    </g>
    <g transform="translate(13.35,60.12)" id="img-52d72e70-142">
      <g class="primitive">
        <text text-anchor="end" dy="0.35em">5</text>
      </g>
    </g>
    <g transform="translate(13.35,41.41)" id="img-52d72e70-143">
      <g class="primitive">
        <text text-anchor="end" dy="0.35em">10</text>
      </g>
    </g>
    <g transform="translate(13.35,22.71)" id="img-52d72e70-144">
      <g class="primitive">
        <text text-anchor="end" dy="0.35em">15</text>
      </g>
    </g>
    <g transform="translate(13.35,4)" id="img-52d72e70-145">
      <g class="primitive">
        <text text-anchor="end" dy="0.35em">20</text>
      </g>
    </g>
  </g>
  <g font-size="2.51" font-family="'PT Sans','Helvetica Neue','Helvetica',sans-serif" fill="#564A55" stroke="#000000" stroke-opacity="0.000" id="img-52d72e70-146">
    <g transform="translate(5.23,39.41)" id="img-52d72e70-147">
      <g class="primitive">
        <text text-anchor="middle" dy="0.35em" transform="rotate(-90,0, 2)">主题社区（#5）相对自然趋势的累积生长动力</text>
      </g>
    </g>
  </g>
</g>
<defs>
  <clipPath id="img-52d72e70-4">
    <path d="M14.35,2 L158,2 158,80.83 14.35,80.83 " />
  </clipPath>
</defs>
</svg>
