<?xml version="1.0" encoding="UTF-8"?>
<svg xmlns="http://www.w3.org/2000/svg"
     xmlns:xlink="http://www.w3.org/1999/xlink"
     xmlns:gadfly="http://www.gadflyjl.org/ns"
     version="1.2"
     width="160mm" height="100mm" viewBox="0 0 160 100"
     stroke="none"
     fill="#000000"
     stroke-width="0.3"
     font-size="3.88"
>
<defs>
  <marker id="arrow" markerWidth="15" markerHeight="7" refX="5" refY="3.5" orient="auto" markerUnits="strokeWidth">
    <path d="M0,0 L15,3.5 L0,7 z" stroke="context-stroke" fill="context-stroke"/>
  </marker>
</defs>
<g class="plotroot xscalable yscalable" id="img-a2cf016b-1">
  <g font-size="2.51" font-family="'PT Sans','Helvetica Neue','Helvetica',sans-serif" fill="#564A55" stroke="#000000" stroke-opacity="0.000" id="img-a2cf016b-2">
    <g transform="translate(86.18,92.53)">
      <g class="primitive">
        <text text-anchor="middle" dy="0.6em">年份</text>
      </g>
    </g>
  </g>
  <g class="guide xlabels" font-size="2.38" font-family="'PT Sans Caption','Helvetica Neue','Helvetica',sans-serif" fill="#6C606B" id="img-a2cf016b-3">
    <g transform="translate(16.35,81.83)">
      <g class="primitive">
        <text text-anchor="end" dy="0.35em" transform="rotate(-90,0, 0)">2006</text>
      </g>
    </g>
    <g transform="translate(21.17,81.83)">
      <g class="primitive">
        <text text-anchor="end" dy="0.35em" transform="rotate(-90,0, 0)">2007</text>
      </g>
    </g>
    <g transform="translate(25.98,81.83)">
      <g class="primitive">
        <text text-anchor="end" dy="0.35em" transform="rotate(-90,0, 0)">2008</text>
      </g>
    </g>
    <g transform="translate(30.8,81.83)">
      <g class="primitive">
        <text text-anchor="end" dy="0.35em" transform="rotate(-90,0, 0)">2009</text>
      </g>
    </g>
    <g transform="translate(35.61,81.83)">
      <g class="primitive">
        <text text-anchor="end" dy="0.35em" transform="rotate(-90,0, 0)">2010</text>
      </g>
    </g>
    <g transform="translate(40.43,81.83)">
      <g class="primitive">
        <text text-anchor="end" dy="0.35em" transform="rotate(-90,0, 0)">2011</text>
      </g>
    </g>
    <g transform="translate(45.24,81.83)">
      <g class="primitive">
        <text text-anchor="end" dy="0.35em" transform="rotate(-90,0, 0)">2012</text>
      </g>
    </g>
    <g transform="translate(50.06,81.83)">
      <g class="primitive">
        <text text-anchor="end" dy="0.35em" transform="rotate(-90,0, 0)">2013</text>
      </g>
    </g>
    <g transform="translate(54.87,81.83)">
      <g class="primitive">
        <text text-anchor="end" dy="0.35em" transform="rotate(-90,0, 0)">2014</text>
      </g>
    </g>
    <g transform="translate(59.69,81.83)">
      <g class="primitive">
        <text text-anchor="end" dy="0.35em" transform="rotate(-90,0, 0)">2015</text>
      </g>
    </g>
    <g transform="translate(64.51,81.83)">
      <g class="primitive">
        <text text-anchor="end" dy="0.35em" transform="rotate(-90,0, 0)">2016</text>
      </g>
    </g>
    <g transform="translate(69.32,81.83)">
      <g class="primitive">
        <text text-anchor="end" dy="0.35em" transform="rotate(-90,0, 0)">2017</text>
      </g>
    </g>
    <g transform="translate(74.14,81.83)">
      <g class="primitive">
        <text text-anchor="end" dy="0.35em" transform="rotate(-90,0, 0)">2018</text>
      </g>
    </g>
    <g transform="translate(78.95,81.83)">
      <g class="primitive">
        <text text-anchor="end" dy="0.35em" transform="rotate(-90,0, 0)">2019</text>
      </g>
    </g>
    <g transform="translate(83.77,81.83)">
      <g class="primitive">
        <text text-anchor="end" dy="0.35em" transform="rotate(-90,0, 0)">2020</text>
      </g>
    </g>
    <g transform="translate(88.58,81.83)">
      <g class="primitive">
        <text text-anchor="end" dy="0.35em" transform="rotate(-90,0, 0)">2021</text>
      </g>
    </g>
    <g transform="translate(93.4,81.83)">
      <g class="primitive">
        <text text-anchor="end" dy="0.35em" transform="rotate(-90,0, 0)">2022</text>
      </g>
    </g>
    <g transform="translate(98.21,81.83)">
      <g class="primitive">
        <text text-anchor="end" dy="0.35em" transform="rotate(-90,0, 0)">2023</text>
      </g>
    </g>
    <g transform="translate(103.03,81.83)">
      <g class="primitive">
        <text text-anchor="end" dy="0.35em" transform="rotate(-90,0, 0)">2024</text>
      </g>
    </g>
    <g transform="translate(107.84,81.83)">
      <g class="primitive">
        <text text-anchor="end" dy="0.35em" transform="rotate(-90,0, 0)">2025</text>
      </g>
    </g>
    <g transform="translate(112.66,81.83)">
      <g class="primitive">
        <text text-anchor="end" dy="0.35em" transform="rotate(-90,0, 0)">2026</text>
      </g>
    </g>
    <g transform="translate(117.48,81.83)">
      <g class="primitive">
        <text text-anchor="end" dy="0.35em" transform="rotate(-90,0, 0)">2027</text>
      </g>
    </g>
    <g transform="translate(122.29,81.83)">
      <g class="primitive">
        <text text-anchor="end" dy="0.35em" transform="rotate(-90,0, 0)">2028</text>
      </g>
    </g>
    <g transform="translate(127.11,81.83)">
      <g class="primitive">
        <text text-anchor="end" dy="0.35em" transform="rotate(-90,0, 0)">2029</text>
      </g>
    </g>
    <g transform="translate(131.92,81.83)">
      <g class="primitive">
        <text text-anchor="end" dy="0.35em" transform="rotate(-90,0, 0)">2030</text>
      </g>
    </g>
    <g transform="translate(136.74,81.83)">
      <g class="primitive">
        <text text-anchor="end" dy="0.35em" transform="rotate(-90,0, 0)">2031</text>
      </g>
    </g>
    <g transform="translate(141.55,81.83)">
      <g class="primitive">
        <text text-anchor="end" dy="0.35em" transform="rotate(-90,0, 0)">2032</text>
      </g>
    </g>
    <g transform="translate(146.37,81.83)">
      <g class="primitive">
        <text text-anchor="end" dy="0.35em" transform="rotate(-90,0, 0)">2033</text>
      </g>
    </g>
    <g transform="translate(151.18,81.83)">
      <g class="primitive">
        <text text-anchor="end" dy="0.35em" transform="rotate(-90,0, 0)">2034</text>
      </g>
    </g>
    <g transform="translate(156,81.83)">
      <g class="primitive">
        <text text-anchor="end" dy="0.35em" transform="rotate(-90,0, 0)">2035</text>
      </g>
    </g>
  </g>
  <g clip-path="url(#img-a2cf016b-4)">
    <g id="img-a2cf016b-5">
      <g pointer-events="visible" stroke-width="0.3" fill="#000000" fill-opacity="0.000" stroke="#000000" stroke-opacity="0.000" class="guide background" id="img-a2cf016b-6">
        <g transform="translate(86.18,41.41)" id="img-a2cf016b-7">
          <path d="M-71.82,-39.41 L71.82,-39.41 71.82,39.41 -71.82,39.41  z" class="primitive"/>
        </g>
      </g>
      <g class="guide ygridlines xfixed" stroke-dasharray="0.5,0.5" stroke-width="0.2" stroke="#D0D0E0" id="img-a2cf016b-8">
        <g transform="translate(86.18,78.83)" id="img-a2cf016b-9">
          <path fill="none" d="M-71.82,0 L71.82,0 " class="primitive"/>
        </g>
        <g transform="translate(86.18,60.12)" id="img-a2cf016b-10">
          <path fill="none" d="M-71.82,0 L71.82,0 " class="primitive"/>
        </g>
        <g transform="translate(86.18,41.41)" id="img-a2cf016b-11">
          <path fill="none" d="M-71.82,0 L71.82,0 " class="primitive"/>
        </g>
        <g transform="translate(86.18,22.71)" id="img-a2cf016b-12">
          <path fill="none" d="M-71.82,0 L71.82,0 " class="primitive"/>
        </g>
        <g transform="translate(86.18,4)" id="img-a2cf016b-13">
          <path fill="none" d="M-71.82,0 L71.82,0 " class="primitive"/>
        </g>
      </g>
      <g class="guide xgridlines yfixed" stroke-dasharray="0.5,0.5" stroke-width="0.2" stroke="#D0D0E0" id="img-a2cf016b-14">
        <g transform="translate(16.35,41.41)" id="img-a2cf016b-15">
          <path fill="none" d="M0,-39.41 L0,39.41 " class="primitive"/>
        </g>
        <g transform="translate(21.17,41.41)" id="img-a2cf016b-16">
          <path fill="none" d="M0,-39.41 L0,39.41 " class="primitive"/>
        </g>
        <g transform="translate(25.98,41.41)" id="img-a2cf016b-17">
          <path fill="none" d="M0,-39.41 L0,39.41 " class="primitive"/>
        </g>
        <g transform="translate(30.8,41.41)" id="img-a2cf016b-18">
          <path fill="none" d="M0,-39.41 L0,39.41 " class="primitive"/>
        </g>
        <g transform="translate(35.61,41.41)" id="img-a2cf016b-19">
          <path fill="none" d="M0,-39.41 L0,39.41 " class="primitive"/>
        </g>
        <g transform="translate(40.43,41.41)" id="img-a2cf016b-20">
          <path fill="none" d="M0,-39.41 L0,39.41 " class="primitive"/>
        </g>
        <g transform="translate(45.24,41.41)" id="img-a2cf016b-21">
          <path fill="none" d="M0,-39.41 L0,39.41 " class="primitive"/>
        </g>
        <g transform="translate(50.06,41.41)" id="img-a2cf016b-22">
          <path fill="none" d="M0,-39.41 L0,39.41 " class="primitive"/>
        </g>
        <g transform="translate(54.87,41.41)" id="img-a2cf016b-23">
          <path fill="none" d="M0,-39.41 L0,39.41 " class="primitive"/>
        </g>
        <g transform="translate(59.69,41.41)" id="img-a2cf016b-24">
          <path fill="none" d="M0,-39.41 L0,39.41 " class="primitive"/>
        </g>
        <g transform="translate(64.51,41.41)" id="img-a2cf016b-25">
          <path fill="none" d="M0,-39.41 L0,39.41 " class="primitive"/>
        </g>
        <g transform="translate(69.32,41.41)" id="img-a2cf016b-26">
          <path fill="none" d="M0,-39.41 L0,39.41 " class="primitive"/>
        </g>
        <g transform="translate(74.14,41.41)" id="img-a2cf016b-27">
          <path fill="none" d="M0,-39.41 L0,39.41 " class="primitive"/>
        </g>
        <g transform="translate(78.95,41.41)" id="img-a2cf016b-28">
          <path fill="none" d="M0,-39.41 L0,39.41 " class="primitive"/>
        </g>
        <g transform="translate(83.77,41.41)" id="img-a2cf016b-29">
          <path fill="none" d="M0,-39.41 L0,39.41 " class="primitive"/>
        </g>
        <g transform="translate(88.58,41.41)" id="img-a2cf016b-30">
          <path fill="none" d="M0,-39.41 L0,39.41 " class="primitive"/>
        </g>
        <g transform="translate(93.4,41.41)" id="img-a2cf016b-31">
          <path fill="none" d="M0,-39.41 L0,39.41 " class="primitive"/>
        </g>
        <g transform="translate(98.21,41.41)" id="img-a2cf016b-32">
          <path fill="none" d="M0,-39.41 L0,39.41 " class="primitive"/>
        </g>
        <g transform="translate(103.03,41.41)" id="img-a2cf016b-33">
          <path fill="none" d="M0,-39.41 L0,39.41 " class="primitive"/>
        </g>
        <g transform="translate(107.84,41.41)" id="img-a2cf016b-34">
          <path fill="none" d="M0,-39.41 L0,39.41 " class="primitive"/>
        </g>
        <g transform="translate(112.66,41.41)" id="img-a2cf016b-35">
          <path fill="none" d="M0,-39.41 L0,39.41 " class="primitive"/>
        </g>
        <g transform="translate(117.48,41.41)" id="img-a2cf016b-36">
          <path fill="none" d="M0,-39.41 L0,39.41 " class="primitive"/>
        </g>
        <g transform="translate(122.29,41.41)" id="img-a2cf016b-37">
          <path fill="none" d="M0,-39.41 L0,39.41 " class="primitive"/>
        </g>
        <g transform="translate(127.11,41.41)" id="img-a2cf016b-38">
          <path fill="none" d="M0,-39.41 L0,39.41 " class="primitive"/>
        </g>
        <g transform="translate(131.92,41.41)" id="img-a2cf016b-39">
          <path fill="none" d="M0,-39.41 L0,39.41 " class="primitive"/>
        </g>
        <g transform="translate(136.74,41.41)" id="img-a2cf016b-40">
          <path fill="none" d="M0,-39.41 L0,39.41 " class="primitive"/>
        </g>
        <g transform="translate(141.55,41.41)" id="img-a2cf016b-41">
          <path fill="none" d="M0,-39.41 L0,39.41 " class="primitive"/>
        </g>
        <g transform="translate(146.37,41.41)" id="img-a2cf016b-42">
          <path fill="none" d="M0,-39.41 L0,39.41 " class="primitive"/>
        </g>
        <g transform="translate(151.18,41.41)" id="img-a2cf016b-43">
          <path fill="none" d="M0,-39.41 L0,39.41 " class="primitive"/>
        </g>
        <g transform="translate(156,41.41)" id="img-a2cf016b-44">
          <path fill="none" d="M0,-39.41 L0,39.41 " class="primitive"/>
        </g>
      </g>
      <g class="plotpanel" id="img-a2cf016b-45">
        <metadata>
          <boundingbox value="14.349999999999994mm 2.0mm 143.65mm 78.82777777777778mm"/>
          <unitbox value="0.5846759756534192 20.53456084341822 29.83064804869316 -21.06912168683644"/>
        </metadata>
        <g stroke-width="0.3" class="geometry" fill-opacity="1" fill="#FAD8F7" id="img-a2cf016b-46">
          <g transform="translate(86.18,29.72)" id="img-a2cf016b-47">
            <path d="M69.82,-15.38 L65.01,-14.11 60.19,-12.77 55.38,-11.36 50.56,-9.88 45.75,-8.31 40.93,-6.67 36.12,-4.95 31.3,-3.15 26.49,-1.26 21.67,0.7 16.85,2.74 12.04,4.86 7.22,7.05 2.41,9.32 -2.41,11.65 -7.22,14.05 -12.04,16.49 -16.85,18.98 -21.67,21.51 -26.49,24.06 -31.3,26.62 -36.12,29.17 -40.93,31.71 -45.75,34.2 -50.56,36.63 -55.38,38.97 -60.19,41.22 -65.01,43.36 -69.83,45.38 -69.83,42.95 -65.01,39.7 -60.19,35.89 -55.38,31.72 -50.56,27.29 -45.75,22.73 -40.93,18.1 -36.12,13.48 -31.3,8.9 -26.49,4.42 -21.67,0.05 -16.85,-4.18 -12.04,-8.25 -7.22,-12.16 -2.41,-15.9 2.41,-19.46 7.22,-22.85 12.04,-26.06 16.85,-29.11 21.67,-31.99 26.49,-34.71 31.3,-37.27 36.12,-39.69 40.93,-41.96 45.75,-44.1 50.56,-46.12 55.38,-48.01 60.19,-49.78 65.01,-51.45 69.82,-53.01  z" class="primitive"/>
          </g>
        </g>
        <g stroke-width="0.3" fill="#000000" fill-opacity="0.000" class="geometry" id="img-a2cf016b-48">
          <g class="color_RGB{N0f8}(0.933,0.0,0.933)" stroke-dasharray="2,1" stroke="#EE00EE" id="img-a2cf016b-49">
            <g transform="translate(86.18,29.72)" id="img-a2cf016b-50">
              <path fill="none" d="M-69.82,44.16 L-65.01,41.53 -60.19,38.56 -55.38,35.34 -50.56,31.96 -45.75,28.46 -40.93,24.9 -36.12,21.33 -31.3,17.76 -26.49,14.24 -21.67,10.78 -16.85,7.4 -12.04,4.12 -7.22,0.94 -2.41,-2.12 2.41,-5.07 7.22,-7.9 12.04,-10.6 16.85,-13.18 21.67,-15.65 26.49,-17.99 31.3,-20.21 36.12,-22.32 40.93,-24.32 45.75,-26.21 50.56,-28 55.38,-29.68 60.19,-31.28 65.01,-32.78 69.82,-34.19 " class="primitive"/>
            </g>
          </g>
        </g>
        <g class="geometry" id="img-a2cf016b-51">
          <g class="color_RGB{N0f8}(0.333,0.102,0.545)" stroke-dasharray="2,1" stroke-width="0.13" stroke="#551A8B" id="img-a2cf016b-52">
            <g transform="translate(47.85,65.76)" id="img-a2cf016b-53">
              <path fill="none" d="M0,-13.07 L0,13.07 " class="primitive"/>
            </g>
            <g transform="translate(85.46,52.69)" id="img-a2cf016b-54">
              <path fill="none" d="M0,-26.14 L0,26.14 " class="primitive"/>
            </g>
            <g transform="translate(140.47,39.61)" id="img-a2cf016b-55">
              <path fill="none" d="M0,-39.21 L0,39.21 " class="primitive"/>
            </g>
          </g>
        </g>
        <g class="geometry" id="img-a2cf016b-56">
          <g stroke-width="0.3" id="img-a2cf016b-57">
            <g class="color_RGBA{Float32}(0.0f0,0.0f0,1.0f0,1.0f0)" fill-opacity="1" stroke="#FFFFFF" fill="#0000FF" id="img-a2cf016b-58">
              <g class="marker" id="img-a2cf016b-59">
                <g transform="translate(83.77,27.59)" id="img-a2cf016b-60">
                  <circle cx="0" cy="0" r="0.9" class="primitive"/>
                </g>
              </g>
            </g>
            <g class="color_RGBA{Float32}(0.0f0,0.0f0,1.0f0,1.0f0)" fill-opacity="1" stroke="#FFFFFF" fill="#0000FF" id="img-a2cf016b-61">
              <g class="marker" id="img-a2cf016b-62">
                <g transform="translate(78.95,31)" id="img-a2cf016b-63">
                  <circle cx="0" cy="0" r="0.9" class="primitive"/>
                </g>
              </g>
            </g>
            <g class="color_RGBA{Float32}(0.0f0,0.0f0,1.0f0,1.0f0)" fill-opacity="1" stroke="#FFFFFF" fill="#0000FF" id="img-a2cf016b-64">
              <g class="marker" id="img-a2cf016b-65">
                <g transform="translate(74.14,34.41)" id="img-a2cf016b-66">
                  <circle cx="0" cy="0" r="0.9" class="primitive"/>
                </g>
              </g>
            </g>
            <g class="color_RGBA{Float32}(0.0f0,0.0f0,1.0f0,1.0f0)" fill-opacity="1" stroke="#FFFFFF" fill="#0000FF" id="img-a2cf016b-67">
              <g class="marker" id="img-a2cf016b-68">
                <g transform="translate(69.32,37.97)" id="img-a2cf016b-69">
                  <circle cx="0" cy="0" r="0.9" class="primitive"/>
                </g>
              </g>
            </g>
            <g class="color_RGBA{Float32}(0.0f0,0.0f0,1.0f0,1.0f0)" fill-opacity="1" stroke="#FFFFFF" fill="#0000FF" id="img-a2cf016b-70">
              <g class="marker" id="img-a2cf016b-71">
                <g transform="translate(64.51,41.53)" id="img-a2cf016b-72">
                  <circle cx="0" cy="0" r="0.9" class="primitive"/>
                </g>
              </g>
            </g>
            <g class="color_RGBA{Float32}(0.0f0,0.0f0,1.0f0,1.0f0)" fill-opacity="1" stroke="#FFFFFF" fill="#0000FF" id="img-a2cf016b-73">
              <g class="marker" id="img-a2cf016b-74">
                <g transform="translate(59.69,44.78)" id="img-a2cf016b-75">
                  <circle cx="0" cy="0" r="0.9" class="primitive"/>
                </g>
              </g>
            </g>
            <g class="color_RGBA{Float32}(0.0f0,0.0f0,1.0f0,1.0f0)" fill-opacity="1" stroke="#FFFFFF" fill="#0000FF" id="img-a2cf016b-76">
              <g class="marker" id="img-a2cf016b-77">
                <g transform="translate(54.87,47.98)" id="img-a2cf016b-78">
                  <circle cx="0" cy="0" r="0.9" class="primitive"/>
                </g>
              </g>
            </g>
            <g class="color_RGBA{Float32}(0.0f0,0.0f0,1.0f0,1.0f0)" fill-opacity="1" stroke="#FFFFFF" fill="#0000FF" id="img-a2cf016b-79">
              <g class="marker" id="img-a2cf016b-80">
                <g transform="translate(50.06,51.38)" id="img-a2cf016b-81">
                  <circle cx="0" cy="0" r="0.9" class="primitive"/>
                </g>
              </g>
            </g>
            <g class="color_RGBA{Float32}(0.0f0,0.0f0,1.0f0,1.0f0)" fill-opacity="1" stroke="#FFFFFF" fill="#0000FF" id="img-a2cf016b-82">
              <g class="marker" id="img-a2cf016b-83">
                <g transform="translate(45.24,54.64)" id="img-a2cf016b-84">
                  <circle cx="0" cy="0" r="0.9" class="primitive"/>
                </g>
              </g>
            </g>
            <g class="color_RGBA{Float32}(0.0f0,0.0f0,1.0f0,1.0f0)" fill-opacity="1" stroke="#FFFFFF" fill="#0000FF" id="img-a2cf016b-85">
              <g class="marker" id="img-a2cf016b-86">
                <g transform="translate(40.43,57.91)" id="img-a2cf016b-87">
                  <circle cx="0" cy="0" r="0.9" class="primitive"/>
                </g>
              </g>
            </g>
            <g class="color_RGBA{Float32}(0.0f0,0.0f0,1.0f0,1.0f0)" fill-opacity="1" stroke="#FFFFFF" fill="#0000FF" id="img-a2cf016b-88">
              <g class="marker" id="img-a2cf016b-89">
                <g transform="translate(35.61,61.41)" id="img-a2cf016b-90">
                  <circle cx="0" cy="0" r="0.9" class="primitive"/>
                </g>
              </g>
            </g>
            <g class="color_RGBA{Float32}(0.0f0,0.0f0,1.0f0,1.0f0)" fill-opacity="1" stroke="#FFFFFF" fill="#0000FF" id="img-a2cf016b-91">
              <g class="marker" id="img-a2cf016b-92">
                <g transform="translate(30.8,64.68)" id="img-a2cf016b-93">
                  <circle cx="0" cy="0" r="0.9" class="primitive"/>
                </g>
              </g>
            </g>
            <g class="color_RGBA{Float32}(0.0f0,0.0f0,1.0f0,1.0f0)" fill-opacity="1" stroke="#FFFFFF" fill="#0000FF" id="img-a2cf016b-94">
              <g class="marker" id="img-a2cf016b-95">
                <g transform="translate(25.98,68.06)" id="img-a2cf016b-96">
                  <circle cx="0" cy="0" r="0.9" class="primitive"/>
                </g>
              </g>
            </g>
            <g class="color_RGBA{Float32}(0.0f0,0.0f0,1.0f0,1.0f0)" fill-opacity="1" stroke="#FFFFFF" fill="#0000FF" id="img-a2cf016b-97">
              <g class="marker" id="img-a2cf016b-98">
                <g transform="translate(21.17,71.49)" id="img-a2cf016b-99">
                  <circle cx="0" cy="0" r="0.9" class="primitive"/>
                </g>
              </g>
            </g>
            <g class="color_RGBA{Float32}(0.0f0,0.0f0,1.0f0,1.0f0)" fill-opacity="1" stroke="#FFFFFF" fill="#0000FF" id="img-a2cf016b-100">
              <g class="marker" id="img-a2cf016b-101">
                <g transform="translate(16.35,75.09)" id="img-a2cf016b-102">
                  <circle cx="0" cy="0" r="0.9" class="primitive"/>
                </g>
              </g>
            </g>
          </g>
        </g>
        <g stroke-width="0.3" fill="#000000" fill-opacity="0.000" class="geometry" id="img-a2cf016b-103">
          <g class="color_RGB{N0f8}(0.0,0.0,1.0)" stroke-dasharray="none" stroke="#0000FF" id="img-a2cf016b-104">
            <g transform="translate(50.06,51.33)" id="img-a2cf016b-105">
              <path fill="none" d="M-33.71,23.76 L-28.89,20.16 -24.08,16.73 -19.26,13.35 -14.45,10.08 -9.63,6.58 -4.82,3.31 0,0.05 4.82,-3.35 9.63,-6.55 14.45,-9.79 19.26,-13.36 24.08,-16.92 28.89,-20.33 33.71,-23.74 " class="primitive"/>
            </g>
          </g>
        </g>
        <g class="geometry" id="img-a2cf016b-106">
          <g class="color_RGB{N0f8}(1.0,0.0,0.0)" stroke-dasharray="4,1" stroke-width="0.13" stroke="#FF0000" id="img-a2cf016b-107">
            <g transform="translate(83.77,22.71)" id="img-a2cf016b-108">
              <path fill="none" d="M72.23,0 L-72.23,0 " class="primitive"/>
            </g>
          </g>
        </g>
        <g class="geometry" id="img-a2cf016b-109">
          <g stroke-width="0.3" id="img-a2cf016b-110">
            <g class="color_RGBA{Float32}(0.0f0,0.0f0,1.0f0,1.0f0)" fill-opacity="1" stroke="#FFFFFF" fill="#0000FF" id="img-a2cf016b-111">
              <g class="marker" id="img-a2cf016b-112">
                <g transform="translate(83.77,27.59)" id="img-a2cf016b-113">
                  <path d="M-0.8,0 L-2,-2 0,-0.8 2,-2 0.8,0 2,2 0,0.8 -2,2  z" class="primitive"/>
                </g>
              </g>
            </g>
          </g>
        </g>
        <g class="geometry" stroke="#000000" stroke-opacity="0.000" fill="#0000FF" font-size="2.65" font-family="'PT Sans Caption','Helvetica Neue','Helvetica',sans-serif" id="img-a2cf016b-114">
          <g class="marker" id="img-a2cf016b-115">
            <g transform="translate(83.77,27.59)" id="img-a2cf016b-116">
              <g class="primitive">
                <text dy="0.35em" transform="translate(3,0)">当前动力水平</text>
              </g>
            </g>
          </g>
        </g>
      </g>
      <g class="geometry" id="img-a2cf016b-117">
        <g font-size="2.65" fill="#551A8B" id="img-a2cf016b-118">
          <g transform="translate(27.28,75.83)" id="img-a2cf016b-119">
            <g class="primitive">
              <text dy="-0em">发展期</text>
            </g>
          </g>
          <g transform="translate(64.24,75.83)" id="img-a2cf016b-120">
            <g class="primitive">
              <text dy="-0em">蓬勃期</text>
            </g>
          </g>
          <g transform="translate(110.56,75.83)" id="img-a2cf016b-121">
            <g class="primitive">
              <text dy="-0em">持续期</text>
            </g>
          </g>
          <g transform="translate(145.83,75.83)" id="img-a2cf016b-122">
            <g class="primitive">
              <text dy="-0em">嬗变期</text>
            </g>
          </g>
        </g>
      </g>
      <g class="geometry" id="img-a2cf016b-123">
        <g font-size="2.65" fill="#FF0000" id="img-a2cf016b-124">
          <g transform="translate(18.76,21.96)" id="img-a2cf016b-125">
            <g class="primitive">
              <text dy="-0em">学科总体发文动力参考线</text>
            </g>
          </g>
        </g>
      </g>
      <g class="geometry" id="img-a2cf016b-126">
        <g font-size="2.51" fill="#551A8B" id="img-a2cf016b-127">
          <g transform="translate(22.97,13.82)" id="img-a2cf016b-128">
            <g class="primitive">
              <text dy="-0em">拟合拐点年份：2013</text>
            </g>
          </g>
        </g>
      </g>
      <g class="geometry" id="img-a2cf016b-129">
        <g font-size="2.47" id="img-a2cf016b-130">
          <g class="guide colorkey" id="img-a2cf016b-131">
            <g fill="#4C404B" font-size="2.82" font-family="'PT Sans','Helvetica Neue','Helvetica',sans-serif" id="img-a2cf016b-132">
              <g transform="translate(22.4,4.6)" id="img-a2cf016b-133">
                <g class="primitive">
                  <text dy="0.35em">实际曲线</text>
                </g>
              </g>
              <g transform="translate(22.4,8.78)" id="img-a2cf016b-134">
                <g class="primitive">
                  <text dy="0.35em">拟合曲线（K = 27.949; b = 0.782; γ = 0.068）</text>
                </g>
              </g>
            </g>
            <g stroke-width="0.3" id="img-a2cf016b-135">
              <g stroke="#FFFFFF" fill-opacity="1" fill="#EE00EE" id="img-a2cf016b-136">
                <g transform="translate(19.31,8.78)" id="img-a2cf016b-137">
                  <circle cx="0" cy="0" r="0.9" class="primitive"/>
                </g>
              </g>
              <g stroke="#FFFFFF" fill-opacity="1" fill="#0000FF" id="img-a2cf016b-138">
                <g transform="translate(19.31,4.6)" id="img-a2cf016b-139">
                  <circle cx="0" cy="0" r="0.9" class="primitive"/>
                </g>
              </g>
            </g>
            <g fill="#362A35" font-size="3.88" font-family="'PT Sans','Helvetica Neue','Helvetica',sans-serif" stroke="#000000" stroke-opacity="0.000" id="img-a2cf016b-140">
              <g transform="translate(18.22,1.02)" id="img-a2cf016b-141">
                <g class="primitive">
                  <text dy="-0em"></text>
                </g>
              </g>
            </g>
          </g>
        </g>
      </g>
    </g>
  </g>
  <g class="guide ylabels" font-size="2.38" font-family="'PT Sans Caption','Helvetica Neue','Helvetica',sans-serif" fill="#6C606B" id="img-a2cf016b-142">
    <g transform="translate(13.35,78.83)" id="img-a2cf016b-143">
      <g class="primitive">
        <text text-anchor="end" dy="0.35em">0</text>
      </g>
    </g>
    <g transform="translate(13.35,60.12)" id="img-a2cf016b-144">
      <g class="primitive">
        <text text-anchor="end" dy="0.35em">5</text>
      </g>
    </g>
    <g transform="translate(13.35,41.41)" id="img-a2cf016b-145">
      <g class="primitive">
        <text text-anchor="end" dy="0.35em">10</text>
      </g>
    </g>
    <g transform="translate(13.35,22.71)" id="img-a2cf016b-146">
      <g class="primitive">
        <text text-anchor="end" dy="0.35em">15</text>
      </g>
    </g>
    <g transform="translate(13.35,4)" id="img-a2cf016b-147">
      <g class="primitive">
        <text text-anchor="end" dy="0.35em">20</text>
      </g>
    </g>
  </g>
  <g font-size="2.51" font-family="'PT Sans','Helvetica Neue','Helvetica',sans-serif" fill="#564A55" stroke="#000000" stroke-opacity="0.000" id="img-a2cf016b-148">
    <g transform="translate(5.23,39.41)" id="img-a2cf016b-149">
      <g class="primitive">
        <text text-anchor="middle" dy="0.35em" transform="rotate(-90,0, 2)">主题社区（#7）相对自然趋势的累积生长动力</text>
      </g>
    </g>
  </g>
</g>
<defs>
  <clipPath id="img-a2cf016b-4">
    <path d="M14.35,2 L158,2 158,80.83 14.35,80.83 " />
  </clipPath>
</defs>
</svg>
