<?xml version="1.0" encoding="UTF-8"?>
<svg xmlns="http://www.w3.org/2000/svg"
     xmlns:xlink="http://www.w3.org/1999/xlink"
     xmlns:gadfly="http://www.gadflyjl.org/ns"
     version="1.2"
     width="160mm" height="100mm" viewBox="0 0 160 100"
     stroke="none"
     fill="#000000"
     stroke-width="0.3"
     font-size="3.88"
>
<defs>
  <marker id="arrow" markerWidth="15" markerHeight="7" refX="5" refY="3.5" orient="auto" markerUnits="strokeWidth">
    <path d="M0,0 L15,3.5 L0,7 z" stroke="context-stroke" fill="context-stroke"/>
  </marker>
</defs>
<g class="plotroot xscalable yscalable" id="img-82fc0bff-1">
  <g font-size="2.51" font-family="'PT Sans','Helvetica Neue','Helvetica',sans-serif" fill="#564A55" stroke="#000000" stroke-opacity="0.000" id="img-82fc0bff-2">
    <g transform="translate(86.18,92.53)">
      <g class="primitive">
        <text text-anchor="middle" dy="0.6em">年份</text>
      </g>
    </g>
  </g>
  <g class="guide xlabels" font-size="2.38" font-family="'PT Sans Caption','Helvetica Neue','Helvetica',sans-serif" fill="#6C606B" id="img-82fc0bff-3">
    <g transform="translate(16.35,81.83)">
      <g class="primitive">
        <text text-anchor="end" dy="0.35em" transform="rotate(-90,0, 0)">2006</text>
      </g>
    </g>
    <g transform="translate(21.17,81.83)">
      <g class="primitive">
        <text text-anchor="end" dy="0.35em" transform="rotate(-90,0, 0)">2007</text>
      </g>
    </g>
    <g transform="translate(25.98,81.83)">
      <g class="primitive">
        <text text-anchor="end" dy="0.35em" transform="rotate(-90,0, 0)">2008</text>
      </g>
    </g>
    <g transform="translate(30.8,81.83)">
      <g class="primitive">
        <text text-anchor="end" dy="0.35em" transform="rotate(-90,0, 0)">2009</text>
      </g>
    </g>
    <g transform="translate(35.61,81.83)">
      <g class="primitive">
        <text text-anchor="end" dy="0.35em" transform="rotate(-90,0, 0)">2010</text>
      </g>
    </g>
    <g transform="translate(40.43,81.83)">
      <g class="primitive">
        <text text-anchor="end" dy="0.35em" transform="rotate(-90,0, 0)">2011</text>
      </g>
    </g>
    <g transform="translate(45.24,81.83)">
      <g class="primitive">
        <text text-anchor="end" dy="0.35em" transform="rotate(-90,0, 0)">2012</text>
      </g>
    </g>
    <g transform="translate(50.06,81.83)">
      <g class="primitive">
        <text text-anchor="end" dy="0.35em" transform="rotate(-90,0, 0)">2013</text>
      </g>
    </g>
    <g transform="translate(54.87,81.83)">
      <g class="primitive">
        <text text-anchor="end" dy="0.35em" transform="rotate(-90,0, 0)">2014</text>
      </g>
    </g>
    <g transform="translate(59.69,81.83)">
      <g class="primitive">
        <text text-anchor="end" dy="0.35em" transform="rotate(-90,0, 0)">2015</text>
      </g>
    </g>
    <g transform="translate(64.51,81.83)">
      <g class="primitive">
        <text text-anchor="end" dy="0.35em" transform="rotate(-90,0, 0)">2016</text>
      </g>
    </g>
    <g transform="translate(69.32,81.83)">
      <g class="primitive">
        <text text-anchor="end" dy="0.35em" transform="rotate(-90,0, 0)">2017</text>
      </g>
    </g>
    <g transform="translate(74.14,81.83)">
      <g class="primitive">
        <text text-anchor="end" dy="0.35em" transform="rotate(-90,0, 0)">2018</text>
      </g>
    </g>
    <g transform="translate(78.95,81.83)">
      <g class="primitive">
        <text text-anchor="end" dy="0.35em" transform="rotate(-90,0, 0)">2019</text>
      </g>
    </g>
    <g transform="translate(83.77,81.83)">
      <g class="primitive">
        <text text-anchor="end" dy="0.35em" transform="rotate(-90,0, 0)">2020</text>
      </g>
    </g>
    <g transform="translate(88.58,81.83)">
      <g class="primitive">
        <text text-anchor="end" dy="0.35em" transform="rotate(-90,0, 0)">2021</text>
      </g>
    </g>
    <g transform="translate(93.4,81.83)">
      <g class="primitive">
        <text text-anchor="end" dy="0.35em" transform="rotate(-90,0, 0)">2022</text>
      </g>
    </g>
    <g transform="translate(98.21,81.83)">
      <g class="primitive">
        <text text-anchor="end" dy="0.35em" transform="rotate(-90,0, 0)">2023</text>
      </g>
    </g>
    <g transform="translate(103.03,81.83)">
      <g class="primitive">
        <text text-anchor="end" dy="0.35em" transform="rotate(-90,0, 0)">2024</text>
      </g>
    </g>
    <g transform="translate(107.84,81.83)">
      <g class="primitive">
        <text text-anchor="end" dy="0.35em" transform="rotate(-90,0, 0)">2025</text>
      </g>
    </g>
    <g transform="translate(112.66,81.83)">
      <g class="primitive">
        <text text-anchor="end" dy="0.35em" transform="rotate(-90,0, 0)">2026</text>
      </g>
    </g>
    <g transform="translate(117.48,81.83)">
      <g class="primitive">
        <text text-anchor="end" dy="0.35em" transform="rotate(-90,0, 0)">2027</text>
      </g>
    </g>
    <g transform="translate(122.29,81.83)">
      <g class="primitive">
        <text text-anchor="end" dy="0.35em" transform="rotate(-90,0, 0)">2028</text>
      </g>
    </g>
    <g transform="translate(127.11,81.83)">
      <g class="primitive">
        <text text-anchor="end" dy="0.35em" transform="rotate(-90,0, 0)">2029</text>
      </g>
    </g>
    <g transform="translate(131.92,81.83)">
      <g class="primitive">
        <text text-anchor="end" dy="0.35em" transform="rotate(-90,0, 0)">2030</text>
      </g>
    </g>
    <g transform="translate(136.74,81.83)">
      <g class="primitive">
        <text text-anchor="end" dy="0.35em" transform="rotate(-90,0, 0)">2031</text>
      </g>
    </g>
    <g transform="translate(141.55,81.83)">
      <g class="primitive">
        <text text-anchor="end" dy="0.35em" transform="rotate(-90,0, 0)">2032</text>
      </g>
    </g>
    <g transform="translate(146.37,81.83)">
      <g class="primitive">
        <text text-anchor="end" dy="0.35em" transform="rotate(-90,0, 0)">2033</text>
      </g>
    </g>
    <g transform="translate(151.18,81.83)">
      <g class="primitive">
        <text text-anchor="end" dy="0.35em" transform="rotate(-90,0, 0)">2034</text>
      </g>
    </g>
    <g transform="translate(156,81.83)">
      <g class="primitive">
        <text text-anchor="end" dy="0.35em" transform="rotate(-90,0, 0)">2035</text>
      </g>
    </g>
  </g>
  <g clip-path="url(#img-82fc0bff-4)">
    <g id="img-82fc0bff-5">
      <g pointer-events="visible" stroke-width="0.3" fill="#000000" fill-opacity="0.000" stroke="#000000" stroke-opacity="0.000" class="guide background" id="img-82fc0bff-6">
        <g transform="translate(86.18,41.41)" id="img-82fc0bff-7">
          <path d="M-71.82,-39.41 L71.82,-39.41 71.82,39.41 -71.82,39.41  z" class="primitive"/>
        </g>
      </g>
      <g class="guide ygridlines xfixed" stroke-dasharray="0.5,0.5" stroke-width="0.2" stroke="#D0D0E0" id="img-82fc0bff-8">
        <g transform="translate(86.18,78.83)" id="img-82fc0bff-9">
          <path fill="none" d="M-71.82,0 L71.82,0 " class="primitive"/>
        </g>
        <g transform="translate(86.18,60.12)" id="img-82fc0bff-10">
          <path fill="none" d="M-71.82,0 L71.82,0 " class="primitive"/>
        </g>
        <g transform="translate(86.18,41.41)" id="img-82fc0bff-11">
          <path fill="none" d="M-71.82,0 L71.82,0 " class="primitive"/>
        </g>
        <g transform="translate(86.18,22.71)" id="img-82fc0bff-12">
          <path fill="none" d="M-71.82,0 L71.82,0 " class="primitive"/>
        </g>
        <g transform="translate(86.18,4)" id="img-82fc0bff-13">
          <path fill="none" d="M-71.82,0 L71.82,0 " class="primitive"/>
        </g>
      </g>
      <g class="guide xgridlines yfixed" stroke-dasharray="0.5,0.5" stroke-width="0.2" stroke="#D0D0E0" id="img-82fc0bff-14">
        <g transform="translate(16.35,41.41)" id="img-82fc0bff-15">
          <path fill="none" d="M0,-39.41 L0,39.41 " class="primitive"/>
        </g>
        <g transform="translate(21.17,41.41)" id="img-82fc0bff-16">
          <path fill="none" d="M0,-39.41 L0,39.41 " class="primitive"/>
        </g>
        <g transform="translate(25.98,41.41)" id="img-82fc0bff-17">
          <path fill="none" d="M0,-39.41 L0,39.41 " class="primitive"/>
        </g>
        <g transform="translate(30.8,41.41)" id="img-82fc0bff-18">
          <path fill="none" d="M0,-39.41 L0,39.41 " class="primitive"/>
        </g>
        <g transform="translate(35.61,41.41)" id="img-82fc0bff-19">
          <path fill="none" d="M0,-39.41 L0,39.41 " class="primitive"/>
        </g>
        <g transform="translate(40.43,41.41)" id="img-82fc0bff-20">
          <path fill="none" d="M0,-39.41 L0,39.41 " class="primitive"/>
        </g>
        <g transform="translate(45.24,41.41)" id="img-82fc0bff-21">
          <path fill="none" d="M0,-39.41 L0,39.41 " class="primitive"/>
        </g>
        <g transform="translate(50.06,41.41)" id="img-82fc0bff-22">
          <path fill="none" d="M0,-39.41 L0,39.41 " class="primitive"/>
        </g>
        <g transform="translate(54.87,41.41)" id="img-82fc0bff-23">
          <path fill="none" d="M0,-39.41 L0,39.41 " class="primitive"/>
        </g>
        <g transform="translate(59.69,41.41)" id="img-82fc0bff-24">
          <path fill="none" d="M0,-39.41 L0,39.41 " class="primitive"/>
        </g>
        <g transform="translate(64.51,41.41)" id="img-82fc0bff-25">
          <path fill="none" d="M0,-39.41 L0,39.41 " class="primitive"/>
        </g>
        <g transform="translate(69.32,41.41)" id="img-82fc0bff-26">
          <path fill="none" d="M0,-39.41 L0,39.41 " class="primitive"/>
        </g>
        <g transform="translate(74.14,41.41)" id="img-82fc0bff-27">
          <path fill="none" d="M0,-39.41 L0,39.41 " class="primitive"/>
        </g>
        <g transform="translate(78.95,41.41)" id="img-82fc0bff-28">
          <path fill="none" d="M0,-39.41 L0,39.41 " class="primitive"/>
        </g>
        <g transform="translate(83.77,41.41)" id="img-82fc0bff-29">
          <path fill="none" d="M0,-39.41 L0,39.41 " class="primitive"/>
        </g>
        <g transform="translate(88.58,41.41)" id="img-82fc0bff-30">
          <path fill="none" d="M0,-39.41 L0,39.41 " class="primitive"/>
        </g>
        <g transform="translate(93.4,41.41)" id="img-82fc0bff-31">
          <path fill="none" d="M0,-39.41 L0,39.41 " class="primitive"/>
        </g>
        <g transform="translate(98.21,41.41)" id="img-82fc0bff-32">
          <path fill="none" d="M0,-39.41 L0,39.41 " class="primitive"/>
        </g>
        <g transform="translate(103.03,41.41)" id="img-82fc0bff-33">
          <path fill="none" d="M0,-39.41 L0,39.41 " class="primitive"/>
        </g>
        <g transform="translate(107.84,41.41)" id="img-82fc0bff-34">
          <path fill="none" d="M0,-39.41 L0,39.41 " class="primitive"/>
        </g>
        <g transform="translate(112.66,41.41)" id="img-82fc0bff-35">
          <path fill="none" d="M0,-39.41 L0,39.41 " class="primitive"/>
        </g>
        <g transform="translate(117.48,41.41)" id="img-82fc0bff-36">
          <path fill="none" d="M0,-39.41 L0,39.41 " class="primitive"/>
        </g>
        <g transform="translate(122.29,41.41)" id="img-82fc0bff-37">
          <path fill="none" d="M0,-39.41 L0,39.41 " class="primitive"/>
        </g>
        <g transform="translate(127.11,41.41)" id="img-82fc0bff-38">
          <path fill="none" d="M0,-39.41 L0,39.41 " class="primitive"/>
        </g>
        <g transform="translate(131.92,41.41)" id="img-82fc0bff-39">
          <path fill="none" d="M0,-39.41 L0,39.41 " class="primitive"/>
        </g>
        <g transform="translate(136.74,41.41)" id="img-82fc0bff-40">
          <path fill="none" d="M0,-39.41 L0,39.41 " class="primitive"/>
        </g>
        <g transform="translate(141.55,41.41)" id="img-82fc0bff-41">
          <path fill="none" d="M0,-39.41 L0,39.41 " class="primitive"/>
        </g>
        <g transform="translate(146.37,41.41)" id="img-82fc0bff-42">
          <path fill="none" d="M0,-39.41 L0,39.41 " class="primitive"/>
        </g>
        <g transform="translate(151.18,41.41)" id="img-82fc0bff-43">
          <path fill="none" d="M0,-39.41 L0,39.41 " class="primitive"/>
        </g>
        <g transform="translate(156,41.41)" id="img-82fc0bff-44">
          <path fill="none" d="M0,-39.41 L0,39.41 " class="primitive"/>
        </g>
      </g>
      <g class="plotpanel" id="img-82fc0bff-45">
        <metadata>
          <boundingbox value="14.349999999999994mm 2.0mm 143.65mm 78.82777777777778mm"/>
          <unitbox value="0.5846759756534192 20.53456084341822 29.83064804869316 -21.06912168683644"/>
        </metadata>
        <g stroke-width="0.3" class="geometry" fill-opacity="1" fill="#FAD8F7" id="img-82fc0bff-46">
          <g transform="translate(86.18,18.02)" id="img-82fc0bff-47">
            <path d="M69.82,-25.23 L65.01,-23.52 60.19,-21.72 55.38,-19.82 50.56,-17.82 45.75,-15.72 40.93,-13.51 36.12,-11.18 31.3,-8.75 26.49,-6.21 21.67,-3.56 16.85,-0.79 12.04,2.08 7.22,5.05 2.41,8.13 -2.41,11.3 -7.22,14.56 -12.04,17.9 -16.85,21.3 -21.67,24.75 -26.49,28.24 -31.3,31.74 -36.12,35.23 -40.93,38.69 -45.75,42.08 -50.56,45.38 -55.38,48.53 -60.19,51.51 -65.01,54.27 -69.83,56.79 -69.83,54.81 -65.01,51.11 -60.19,46.71 -55.38,41.82 -50.56,36.59 -45.75,31.15 -40.93,25.6 -36.12,20.02 -31.3,14.46 -26.49,8.99 -21.67,3.63 -16.85,-1.57 -12.04,-6.61 -7.22,-11.47 -2.41,-16.13 2.41,-20.59 7.22,-24.84 12.04,-28.89 16.85,-32.74 21.67,-36.39 26.49,-39.84 31.3,-43.11 36.12,-46.2 40.93,-49.11 45.75,-51.86 50.56,-54.45 55.38,-56.89 60.19,-59.18 65.01,-61.34 69.82,-63.37  z" class="primitive"/>
          </g>
        </g>
        <g stroke-width="0.3" fill="#000000" fill-opacity="0.000" class="geometry" id="img-82fc0bff-48">
          <g class="color_RGB{N0f8}(0.933,0.0,0.933)" stroke-dasharray="2,1" stroke="#EE00EE" id="img-82fc0bff-49">
            <g transform="translate(86.18,18.02)" id="img-82fc0bff-50">
              <path fill="none" d="M-69.82,55.8 L-65.01,52.69 -60.19,49.11 -55.38,45.18 -50.56,40.98 -45.75,36.62 -40.93,32.15 -36.12,27.62 -31.3,23.1 -26.49,18.61 -21.67,14.19 -16.85,9.86 -12.04,5.64 -7.22,1.55 -2.41,-2.41 2.41,-6.23 7.22,-9.89 12.04,-13.41 16.85,-16.77 21.67,-19.97 26.49,-23.03 31.3,-25.93 36.12,-28.69 40.93,-31.31 45.75,-33.79 50.56,-36.14 55.38,-38.36 60.19,-40.45 65.01,-42.43 69.82,-44.3 " class="primitive"/>
            </g>
          </g>
        </g>
        <g class="geometry" id="img-82fc0bff-51">
          <g class="color_RGB{N0f8}(0.333,0.102,0.545)" stroke-dasharray="2,1" stroke-width="0.13" stroke="#551A8B" id="img-82fc0bff-52">
            <g transform="translate(50.26,62.14)" id="img-82fc0bff-53">
              <path fill="none" d="M0,-16.69 L0,16.69 " class="primitive"/>
            </g>
            <g transform="translate(88.21,45.45)" id="img-82fc0bff-54">
              <path fill="none" d="M0,-33.38 L0,33.38 " class="primitive"/>
            </g>
            <g transform="translate(143.72,28.76)" id="img-82fc0bff-55">
              <path fill="none" d="M0,-50.06 L0,50.06 " class="primitive"/>
            </g>
          </g>
        </g>
        <g class="geometry" id="img-82fc0bff-56">
          <g stroke-width="0.3" id="img-82fc0bff-57">
            <g class="color_RGBA{Float32}(0.0f0,0.0f0,1.0f0,1.0f0)" fill-opacity="1" stroke="#FFFFFF" fill="#0000FF" id="img-82fc0bff-58">
              <g class="marker" id="img-82fc0bff-59">
                <g transform="translate(83.77,15.6)" id="img-82fc0bff-60">
                  <circle cx="0" cy="0" r="0.9" class="primitive"/>
                </g>
              </g>
            </g>
            <g class="color_RGBA{Float32}(0.0f0,0.0f0,1.0f0,1.0f0)" fill-opacity="1" stroke="#FFFFFF" fill="#0000FF" id="img-82fc0bff-61">
              <g class="marker" id="img-82fc0bff-62">
                <g transform="translate(78.95,19.82)" id="img-82fc0bff-63">
                  <circle cx="0" cy="0" r="0.9" class="primitive"/>
                </g>
              </g>
            </g>
            <g class="color_RGBA{Float32}(0.0f0,0.0f0,1.0f0,1.0f0)" fill-opacity="1" stroke="#FFFFFF" fill="#0000FF" id="img-82fc0bff-64">
              <g class="marker" id="img-82fc0bff-65">
                <g transform="translate(74.14,24.23)" id="img-82fc0bff-66">
                  <circle cx="0" cy="0" r="0.9" class="primitive"/>
                </g>
              </g>
            </g>
            <g class="color_RGBA{Float32}(0.0f0,0.0f0,1.0f0,1.0f0)" fill-opacity="1" stroke="#FFFFFF" fill="#0000FF" id="img-82fc0bff-67">
              <g class="marker" id="img-82fc0bff-68">
                <g transform="translate(69.32,28.69)" id="img-82fc0bff-69">
                  <circle cx="0" cy="0" r="0.9" class="primitive"/>
                </g>
              </g>
            </g>
            <g class="color_RGBA{Float32}(0.0f0,0.0f0,1.0f0,1.0f0)" fill-opacity="1" stroke="#FFFFFF" fill="#0000FF" id="img-82fc0bff-70">
              <g class="marker" id="img-82fc0bff-71">
                <g transform="translate(64.51,32.96)" id="img-82fc0bff-72">
                  <circle cx="0" cy="0" r="0.9" class="primitive"/>
                </g>
              </g>
            </g>
            <g class="color_RGBA{Float32}(0.0f0,0.0f0,1.0f0,1.0f0)" fill-opacity="1" stroke="#FFFFFF" fill="#0000FF" id="img-82fc0bff-73">
              <g class="marker" id="img-82fc0bff-74">
                <g transform="translate(59.69,37.36)" id="img-82fc0bff-75">
                  <circle cx="0" cy="0" r="0.9" class="primitive"/>
                </g>
              </g>
            </g>
            <g class="color_RGBA{Float32}(0.0f0,0.0f0,1.0f0,1.0f0)" fill-opacity="1" stroke="#FFFFFF" fill="#0000FF" id="img-82fc0bff-76">
              <g class="marker" id="img-82fc0bff-77">
                <g transform="translate(54.87,41.67)" id="img-82fc0bff-78">
                  <circle cx="0" cy="0" r="0.9" class="primitive"/>
                </g>
              </g>
            </g>
            <g class="color_RGBA{Float32}(0.0f0,0.0f0,1.0f0,1.0f0)" fill-opacity="1" stroke="#FFFFFF" fill="#0000FF" id="img-82fc0bff-79">
              <g class="marker" id="img-82fc0bff-80">
                <g transform="translate(50.06,45.93)" id="img-82fc0bff-81">
                  <circle cx="0" cy="0" r="0.9" class="primitive"/>
                </g>
              </g>
            </g>
            <g class="color_RGBA{Float32}(0.0f0,0.0f0,1.0f0,1.0f0)" fill-opacity="1" stroke="#FFFFFF" fill="#0000FF" id="img-82fc0bff-82">
              <g class="marker" id="img-82fc0bff-83">
                <g transform="translate(45.24,50.27)" id="img-82fc0bff-84">
                  <circle cx="0" cy="0" r="0.9" class="primitive"/>
                </g>
              </g>
            </g>
            <g class="color_RGBA{Float32}(0.0f0,0.0f0,1.0f0,1.0f0)" fill-opacity="1" stroke="#FFFFFF" fill="#0000FF" id="img-82fc0bff-85">
              <g class="marker" id="img-82fc0bff-86">
                <g transform="translate(40.43,54.42)" id="img-82fc0bff-87">
                  <circle cx="0" cy="0" r="0.9" class="primitive"/>
                </g>
              </g>
            </g>
            <g class="color_RGBA{Float32}(0.0f0,0.0f0,1.0f0,1.0f0)" fill-opacity="1" stroke="#FFFFFF" fill="#0000FF" id="img-82fc0bff-88">
              <g class="marker" id="img-82fc0bff-89">
                <g transform="translate(35.61,58.53)" id="img-82fc0bff-90">
                  <circle cx="0" cy="0" r="0.9" class="primitive"/>
                </g>
              </g>
            </g>
            <g class="color_RGBA{Float32}(0.0f0,0.0f0,1.0f0,1.0f0)" fill-opacity="1" stroke="#FFFFFF" fill="#0000FF" id="img-82fc0bff-91">
              <g class="marker" id="img-82fc0bff-92">
                <g transform="translate(30.8,62.82)" id="img-82fc0bff-93">
                  <circle cx="0" cy="0" r="0.9" class="primitive"/>
                </g>
              </g>
            </g>
            <g class="color_RGBA{Float32}(0.0f0,0.0f0,1.0f0,1.0f0)" fill-opacity="1" stroke="#FFFFFF" fill="#0000FF" id="img-82fc0bff-94">
              <g class="marker" id="img-82fc0bff-95">
                <g transform="translate(25.98,66.84)" id="img-82fc0bff-96">
                  <circle cx="0" cy="0" r="0.9" class="primitive"/>
                </g>
              </g>
            </g>
            <g class="color_RGBA{Float32}(0.0f0,0.0f0,1.0f0,1.0f0)" fill-opacity="1" stroke="#FFFFFF" fill="#0000FF" id="img-82fc0bff-97">
              <g class="marker" id="img-82fc0bff-98">
                <g transform="translate(21.17,70.97)" id="img-82fc0bff-99">
                  <circle cx="0" cy="0" r="0.9" class="primitive"/>
                </g>
              </g>
            </g>
            <g class="color_RGBA{Float32}(0.0f0,0.0f0,1.0f0,1.0f0)" fill-opacity="1" stroke="#FFFFFF" fill="#0000FF" id="img-82fc0bff-100">
              <g class="marker" id="img-82fc0bff-101">
                <g transform="translate(16.35,75.09)" id="img-82fc0bff-102">
                  <circle cx="0" cy="0" r="0.9" class="primitive"/>
                </g>
              </g>
            </g>
          </g>
        </g>
        <g stroke-width="0.3" fill="#000000" fill-opacity="0.000" class="geometry" id="img-82fc0bff-103">
          <g class="color_RGB{N0f8}(0.0,0.0,1.0)" stroke-dasharray="none" stroke="#0000FF" id="img-82fc0bff-104">
            <g transform="translate(50.06,45.68)" id="img-82fc0bff-105">
              <path fill="none" d="M-33.71,29.41 L-28.89,25.29 -24.08,21.16 -19.26,17.14 -14.45,12.85 -9.63,8.74 -4.82,4.59 0,0.25 4.82,-4.01 9.63,-8.32 14.45,-12.72 19.26,-16.99 24.08,-21.45 28.89,-25.86 33.71,-30.08 " class="primitive"/>
            </g>
          </g>
        </g>
        <g class="geometry" id="img-82fc0bff-106">
          <g class="color_RGB{N0f8}(1.0,0.0,0.0)" stroke-dasharray="4,1" stroke-width="0.13" stroke="#FF0000" id="img-82fc0bff-107">
            <g transform="translate(83.77,22.71)" id="img-82fc0bff-108">
              <path fill="none" d="M72.23,0 L-72.23,0 " class="primitive"/>
            </g>
          </g>
        </g>
        <g class="geometry" id="img-82fc0bff-109">
          <g stroke-width="0.3" id="img-82fc0bff-110">
            <g class="color_RGBA{Float32}(0.0f0,0.0f0,1.0f0,1.0f0)" fill-opacity="1" stroke="#FFFFFF" fill="#0000FF" id="img-82fc0bff-111">
              <g class="marker" id="img-82fc0bff-112">
                <g transform="translate(83.77,15.6)" id="img-82fc0bff-113">
                  <path d="M-0.8,-0 L-2,-2 0,-0.8 2,-2 0.8,-0 2,2 0,0.8 -2,2  z" class="primitive"/>
                </g>
              </g>
            </g>
          </g>
        </g>
        <g class="geometry" stroke="#000000" stroke-opacity="0.000" fill="#0000FF" font-size="2.65" font-family="'PT Sans Caption','Helvetica Neue','Helvetica',sans-serif" id="img-82fc0bff-114">
          <g class="marker" id="img-82fc0bff-115">
            <g transform="translate(83.77,15.6)" id="img-82fc0bff-116">
              <g class="primitive">
                <text dy="0.35em" transform="translate(3,0)">当前动力水平</text>
              </g>
            </g>
          </g>
        </g>
      </g>
      <g class="geometry" id="img-82fc0bff-117">
        <g font-size="2.65" fill="#551A8B" id="img-82fc0bff-118">
          <g transform="translate(28.49,75.83)" id="img-82fc0bff-119">
            <g class="primitive">
              <text dy="-0em">发展期</text>
            </g>
          </g>
          <g transform="translate(66.83,75.83)" id="img-82fc0bff-120">
            <g class="primitive">
              <text dy="-0em">蓬勃期</text>
            </g>
          </g>
          <g transform="translate(113.56,75.83)" id="img-82fc0bff-121">
            <g class="primitive">
              <text dy="-0em">持续期</text>
            </g>
          </g>
          <g transform="translate(147.45,75.83)" id="img-82fc0bff-122">
            <g class="primitive">
              <text dy="-0em">嬗变期</text>
            </g>
          </g>
        </g>
      </g>
      <g class="geometry" id="img-82fc0bff-123">
        <g font-size="2.65" fill="#FF0000" id="img-82fc0bff-124">
          <g transform="translate(18.76,21.96)" id="img-82fc0bff-125">
            <g class="primitive">
              <text dy="-0em">学科总体发文动力参考线</text>
            </g>
          </g>
        </g>
      </g>
      <g class="geometry" id="img-82fc0bff-126">
        <g font-size="2.51" fill="#551A8B" id="img-82fc0bff-127">
          <g transform="translate(22.97,13.82)" id="img-82fc0bff-128">
            <g class="primitive">
              <text dy="-0em">拟合拐点年份：2014</text>
            </g>
          </g>
        </g>
      </g>
      <g class="geometry" id="img-82fc0bff-129">
        <g font-size="2.47" id="img-82fc0bff-130">
          <g class="guide colorkey" id="img-82fc0bff-131">
            <g fill="#4C404B" font-size="2.82" font-family="'PT Sans','Helvetica Neue','Helvetica',sans-serif" id="img-82fc0bff-132">
              <g transform="translate(22.4,4.6)" id="img-82fc0bff-133">
                <g class="primitive">
                  <text dy="0.35em">实际曲线</text>
                </g>
              </g>
              <g transform="translate(22.4,8.78)" id="img-82fc0bff-134">
                <g class="primitive">
                  <text dy="0.35em">拟合曲线（K = 35.682; b = 0.806; γ = 0.068）</text>
                </g>
              </g>
            </g>
            <g stroke-width="0.3" id="img-82fc0bff-135">
              <g stroke="#FFFFFF" fill-opacity="1" fill="#EE00EE" id="img-82fc0bff-136">
                <g transform="translate(19.31,8.78)" id="img-82fc0bff-137">
                  <circle cx="0" cy="0" r="0.9" class="primitive"/>
                </g>
              </g>
              <g stroke="#FFFFFF" fill-opacity="1" fill="#0000FF" id="img-82fc0bff-138">
                <g transform="translate(19.31,4.6)" id="img-82fc0bff-139">
                  <circle cx="0" cy="0" r="0.9" class="primitive"/>
                </g>
              </g>
            </g>
            <g fill="#362A35" font-size="3.88" font-family="'PT Sans','Helvetica Neue','Helvetica',sans-serif" stroke="#000000" stroke-opacity="0.000" id="img-82fc0bff-140">
              <g transform="translate(18.22,1.02)" id="img-82fc0bff-141">
                <g class="primitive">
                  <text dy="-0em"></text>
                </g>
              </g>
            </g>
          </g>
        </g>
      </g>
    </g>
  </g>
  <g class="guide ylabels" font-size="2.38" font-family="'PT Sans Caption','Helvetica Neue','Helvetica',sans-serif" fill="#6C606B" id="img-82fc0bff-142">
    <g transform="translate(13.35,78.83)" id="img-82fc0bff-143">
      <g class="primitive">
        <text text-anchor="end" dy="0.35em">0</text>
      </g>
    </g>
    <g transform="translate(13.35,60.12)" id="img-82fc0bff-144">
      <g class="primitive">
        <text text-anchor="end" dy="0.35em">5</text>
      </g>
    </g>
    <g transform="translate(13.35,41.41)" id="img-82fc0bff-145">
      <g class="primitive">
        <text text-anchor="end" dy="0.35em">10</text>
      </g>
    </g>
    <g transform="translate(13.35,22.71)" id="img-82fc0bff-146">
      <g class="primitive">
        <text text-anchor="end" dy="0.35em">15</text>
      </g>
    </g>
    <g transform="translate(13.35,4)" id="img-82fc0bff-147">
      <g class="primitive">
        <text text-anchor="end" dy="0.35em">20</text>
      </g>
    </g>
  </g>
  <g font-size="2.51" font-family="'PT Sans','Helvetica Neue','Helvetica',sans-serif" fill="#564A55" stroke="#000000" stroke-opacity="0.000" id="img-82fc0bff-148">
    <g transform="translate(5.23,39.41)" id="img-82fc0bff-149">
      <g class="primitive">
        <text text-anchor="middle" dy="0.35em" transform="rotate(-90,0, 2)">主题社区（#8）相对自然趋势的累积生长动力</text>
      </g>
    </g>
  </g>
</g>
<defs>
  <clipPath id="img-82fc0bff-4">
    <path d="M14.35,2 L158,2 158,80.83 14.35,80.83 " />
  </clipPath>
</defs>
</svg>
