<?xml version="1.0" encoding="UTF-8"?>
<svg xmlns="http://www.w3.org/2000/svg"
     xmlns:xlink="http://www.w3.org/1999/xlink"
     xmlns:gadfly="http://www.gadflyjl.org/ns"
     version="1.2"
     width="160mm" height="100mm" viewBox="0 0 160 100"
     stroke="none"
     fill="#000000"
     stroke-width="0.3"
     font-size="3.88"
>
<defs>
  <marker id="arrow" markerWidth="15" markerHeight="7" refX="5" refY="3.5" orient="auto" markerUnits="strokeWidth">
    <path d="M0,0 L15,3.5 L0,7 z" stroke="context-stroke" fill="context-stroke"/>
  </marker>
</defs>
<g class="plotroot xscalable yscalable" id="img-9426d387-1">
  <g font-size="2.51" font-family="'PT Sans','Helvetica Neue','Helvetica',sans-serif" fill="#564A55" stroke="#000000" stroke-opacity="0.000" id="img-9426d387-2">
    <g transform="translate(86.18,92.53)">
      <g class="primitive">
        <text text-anchor="middle" dy="0.6em">年份</text>
      </g>
    </g>
  </g>
  <g class="guide xlabels" font-size="2.38" font-family="'PT Sans Caption','Helvetica Neue','Helvetica',sans-serif" fill="#6C606B" id="img-9426d387-3">
    <g transform="translate(16.35,81.83)">
      <g class="primitive">
        <text text-anchor="end" dy="0.35em" transform="rotate(-90,0, 0)">2006</text>
      </g>
    </g>
    <g transform="translate(21.17,81.83)">
      <g class="primitive">
        <text text-anchor="end" dy="0.35em" transform="rotate(-90,0, 0)">2007</text>
      </g>
    </g>
    <g transform="translate(25.98,81.83)">
      <g class="primitive">
        <text text-anchor="end" dy="0.35em" transform="rotate(-90,0, 0)">2008</text>
      </g>
    </g>
    <g transform="translate(30.8,81.83)">
      <g class="primitive">
        <text text-anchor="end" dy="0.35em" transform="rotate(-90,0, 0)">2009</text>
      </g>
    </g>
    <g transform="translate(35.61,81.83)">
      <g class="primitive">
        <text text-anchor="end" dy="0.35em" transform="rotate(-90,0, 0)">2010</text>
      </g>
    </g>
    <g transform="translate(40.43,81.83)">
      <g class="primitive">
        <text text-anchor="end" dy="0.35em" transform="rotate(-90,0, 0)">2011</text>
      </g>
    </g>
    <g transform="translate(45.24,81.83)">
      <g class="primitive">
        <text text-anchor="end" dy="0.35em" transform="rotate(-90,0, 0)">2012</text>
      </g>
    </g>
    <g transform="translate(50.06,81.83)">
      <g class="primitive">
        <text text-anchor="end" dy="0.35em" transform="rotate(-90,0, 0)">2013</text>
      </g>
    </g>
    <g transform="translate(54.87,81.83)">
      <g class="primitive">
        <text text-anchor="end" dy="0.35em" transform="rotate(-90,0, 0)">2014</text>
      </g>
    </g>
    <g transform="translate(59.69,81.83)">
      <g class="primitive">
        <text text-anchor="end" dy="0.35em" transform="rotate(-90,0, 0)">2015</text>
      </g>
    </g>
    <g transform="translate(64.51,81.83)">
      <g class="primitive">
        <text text-anchor="end" dy="0.35em" transform="rotate(-90,0, 0)">2016</text>
      </g>
    </g>
    <g transform="translate(69.32,81.83)">
      <g class="primitive">
        <text text-anchor="end" dy="0.35em" transform="rotate(-90,0, 0)">2017</text>
      </g>
    </g>
    <g transform="translate(74.14,81.83)">
      <g class="primitive">
        <text text-anchor="end" dy="0.35em" transform="rotate(-90,0, 0)">2018</text>
      </g>
    </g>
    <g transform="translate(78.95,81.83)">
      <g class="primitive">
        <text text-anchor="end" dy="0.35em" transform="rotate(-90,0, 0)">2019</text>
      </g>
    </g>
    <g transform="translate(83.77,81.83)">
      <g class="primitive">
        <text text-anchor="end" dy="0.35em" transform="rotate(-90,0, 0)">2020</text>
      </g>
    </g>
    <g transform="translate(88.58,81.83)">
      <g class="primitive">
        <text text-anchor="end" dy="0.35em" transform="rotate(-90,0, 0)">2021</text>
      </g>
    </g>
    <g transform="translate(93.4,81.83)">
      <g class="primitive">
        <text text-anchor="end" dy="0.35em" transform="rotate(-90,0, 0)">2022</text>
      </g>
    </g>
    <g transform="translate(98.21,81.83)">
      <g class="primitive">
        <text text-anchor="end" dy="0.35em" transform="rotate(-90,0, 0)">2023</text>
      </g>
    </g>
    <g transform="translate(103.03,81.83)">
      <g class="primitive">
        <text text-anchor="end" dy="0.35em" transform="rotate(-90,0, 0)">2024</text>
      </g>
    </g>
    <g transform="translate(107.84,81.83)">
      <g class="primitive">
        <text text-anchor="end" dy="0.35em" transform="rotate(-90,0, 0)">2025</text>
      </g>
    </g>
    <g transform="translate(112.66,81.83)">
      <g class="primitive">
        <text text-anchor="end" dy="0.35em" transform="rotate(-90,0, 0)">2026</text>
      </g>
    </g>
    <g transform="translate(117.48,81.83)">
      <g class="primitive">
        <text text-anchor="end" dy="0.35em" transform="rotate(-90,0, 0)">2027</text>
      </g>
    </g>
    <g transform="translate(122.29,81.83)">
      <g class="primitive">
        <text text-anchor="end" dy="0.35em" transform="rotate(-90,0, 0)">2028</text>
      </g>
    </g>
    <g transform="translate(127.11,81.83)">
      <g class="primitive">
        <text text-anchor="end" dy="0.35em" transform="rotate(-90,0, 0)">2029</text>
      </g>
    </g>
    <g transform="translate(131.92,81.83)">
      <g class="primitive">
        <text text-anchor="end" dy="0.35em" transform="rotate(-90,0, 0)">2030</text>
      </g>
    </g>
    <g transform="translate(136.74,81.83)">
      <g class="primitive">
        <text text-anchor="end" dy="0.35em" transform="rotate(-90,0, 0)">2031</text>
      </g>
    </g>
    <g transform="translate(141.55,81.83)">
      <g class="primitive">
        <text text-anchor="end" dy="0.35em" transform="rotate(-90,0, 0)">2032</text>
      </g>
    </g>
    <g transform="translate(146.37,81.83)">
      <g class="primitive">
        <text text-anchor="end" dy="0.35em" transform="rotate(-90,0, 0)">2033</text>
      </g>
    </g>
    <g transform="translate(151.18,81.83)">
      <g class="primitive">
        <text text-anchor="end" dy="0.35em" transform="rotate(-90,0, 0)">2034</text>
      </g>
    </g>
    <g transform="translate(156,81.83)">
      <g class="primitive">
        <text text-anchor="end" dy="0.35em" transform="rotate(-90,0, 0)">2035</text>
      </g>
    </g>
  </g>
  <g clip-path="url(#img-9426d387-4)">
    <g id="img-9426d387-5">
      <g pointer-events="visible" stroke-width="0.3" fill="#000000" fill-opacity="0.000" stroke="#000000" stroke-opacity="0.000" class="guide background" id="img-9426d387-6">
        <g transform="translate(86.18,41.41)" id="img-9426d387-7">
          <path d="M-71.82,-39.41 L71.82,-39.41 71.82,39.41 -71.82,39.41  z" class="primitive"/>
        </g>
      </g>
      <g class="guide ygridlines xfixed" stroke-dasharray="0.5,0.5" stroke-width="0.2" stroke="#D0D0E0" id="img-9426d387-8">
        <g transform="translate(86.18,78.83)" id="img-9426d387-9">
          <path fill="none" d="M-71.82,0 L71.82,0 " class="primitive"/>
        </g>
        <g transform="translate(86.18,60.12)" id="img-9426d387-10">
          <path fill="none" d="M-71.82,0 L71.82,0 " class="primitive"/>
        </g>
        <g transform="translate(86.18,41.41)" id="img-9426d387-11">
          <path fill="none" d="M-71.82,0 L71.82,0 " class="primitive"/>
        </g>
        <g transform="translate(86.18,22.71)" id="img-9426d387-12">
          <path fill="none" d="M-71.82,0 L71.82,0 " class="primitive"/>
        </g>
        <g transform="translate(86.18,4)" id="img-9426d387-13">
          <path fill="none" d="M-71.82,0 L71.82,0 " class="primitive"/>
        </g>
      </g>
      <g class="guide xgridlines yfixed" stroke-dasharray="0.5,0.5" stroke-width="0.2" stroke="#D0D0E0" id="img-9426d387-14">
        <g transform="translate(16.35,41.41)" id="img-9426d387-15">
          <path fill="none" d="M0,-39.41 L0,39.41 " class="primitive"/>
        </g>
        <g transform="translate(21.17,41.41)" id="img-9426d387-16">
          <path fill="none" d="M0,-39.41 L0,39.41 " class="primitive"/>
        </g>
        <g transform="translate(25.98,41.41)" id="img-9426d387-17">
          <path fill="none" d="M0,-39.41 L0,39.41 " class="primitive"/>
        </g>
        <g transform="translate(30.8,41.41)" id="img-9426d387-18">
          <path fill="none" d="M0,-39.41 L0,39.41 " class="primitive"/>
        </g>
        <g transform="translate(35.61,41.41)" id="img-9426d387-19">
          <path fill="none" d="M0,-39.41 L0,39.41 " class="primitive"/>
        </g>
        <g transform="translate(40.43,41.41)" id="img-9426d387-20">
          <path fill="none" d="M0,-39.41 L0,39.41 " class="primitive"/>
        </g>
        <g transform="translate(45.24,41.41)" id="img-9426d387-21">
          <path fill="none" d="M0,-39.41 L0,39.41 " class="primitive"/>
        </g>
        <g transform="translate(50.06,41.41)" id="img-9426d387-22">
          <path fill="none" d="M0,-39.41 L0,39.41 " class="primitive"/>
        </g>
        <g transform="translate(54.87,41.41)" id="img-9426d387-23">
          <path fill="none" d="M0,-39.41 L0,39.41 " class="primitive"/>
        </g>
        <g transform="translate(59.69,41.41)" id="img-9426d387-24">
          <path fill="none" d="M0,-39.41 L0,39.41 " class="primitive"/>
        </g>
        <g transform="translate(64.51,41.41)" id="img-9426d387-25">
          <path fill="none" d="M0,-39.41 L0,39.41 " class="primitive"/>
        </g>
        <g transform="translate(69.32,41.41)" id="img-9426d387-26">
          <path fill="none" d="M0,-39.41 L0,39.41 " class="primitive"/>
        </g>
        <g transform="translate(74.14,41.41)" id="img-9426d387-27">
          <path fill="none" d="M0,-39.41 L0,39.41 " class="primitive"/>
        </g>
        <g transform="translate(78.95,41.41)" id="img-9426d387-28">
          <path fill="none" d="M0,-39.41 L0,39.41 " class="primitive"/>
        </g>
        <g transform="translate(83.77,41.41)" id="img-9426d387-29">
          <path fill="none" d="M0,-39.41 L0,39.41 " class="primitive"/>
        </g>
        <g transform="translate(88.58,41.41)" id="img-9426d387-30">
          <path fill="none" d="M0,-39.41 L0,39.41 " class="primitive"/>
        </g>
        <g transform="translate(93.4,41.41)" id="img-9426d387-31">
          <path fill="none" d="M0,-39.41 L0,39.41 " class="primitive"/>
        </g>
        <g transform="translate(98.21,41.41)" id="img-9426d387-32">
          <path fill="none" d="M0,-39.41 L0,39.41 " class="primitive"/>
        </g>
        <g transform="translate(103.03,41.41)" id="img-9426d387-33">
          <path fill="none" d="M0,-39.41 L0,39.41 " class="primitive"/>
        </g>
        <g transform="translate(107.84,41.41)" id="img-9426d387-34">
          <path fill="none" d="M0,-39.41 L0,39.41 " class="primitive"/>
        </g>
        <g transform="translate(112.66,41.41)" id="img-9426d387-35">
          <path fill="none" d="M0,-39.41 L0,39.41 " class="primitive"/>
        </g>
        <g transform="translate(117.48,41.41)" id="img-9426d387-36">
          <path fill="none" d="M0,-39.41 L0,39.41 " class="primitive"/>
        </g>
        <g transform="translate(122.29,41.41)" id="img-9426d387-37">
          <path fill="none" d="M0,-39.41 L0,39.41 " class="primitive"/>
        </g>
        <g transform="translate(127.11,41.41)" id="img-9426d387-38">
          <path fill="none" d="M0,-39.41 L0,39.41 " class="primitive"/>
        </g>
        <g transform="translate(131.92,41.41)" id="img-9426d387-39">
          <path fill="none" d="M0,-39.41 L0,39.41 " class="primitive"/>
        </g>
        <g transform="translate(136.74,41.41)" id="img-9426d387-40">
          <path fill="none" d="M0,-39.41 L0,39.41 " class="primitive"/>
        </g>
        <g transform="translate(141.55,41.41)" id="img-9426d387-41">
          <path fill="none" d="M0,-39.41 L0,39.41 " class="primitive"/>
        </g>
        <g transform="translate(146.37,41.41)" id="img-9426d387-42">
          <path fill="none" d="M0,-39.41 L0,39.41 " class="primitive"/>
        </g>
        <g transform="translate(151.18,41.41)" id="img-9426d387-43">
          <path fill="none" d="M0,-39.41 L0,39.41 " class="primitive"/>
        </g>
        <g transform="translate(156,41.41)" id="img-9426d387-44">
          <path fill="none" d="M0,-39.41 L0,39.41 " class="primitive"/>
        </g>
      </g>
      <g class="plotpanel" id="img-9426d387-45">
        <metadata>
          <boundingbox value="14.349999999999994mm 2.0mm 143.65mm 78.82777777777778mm"/>
          <unitbox value="0.5846759756534192 20.53456084341822 29.83064804869316 -21.06912168683644"/>
        </metadata>
        <g stroke-width="0.3" class="geometry" fill-opacity="1" fill="#FAD8F7" id="img-9426d387-46">
          <g transform="translate(86.18,19.93)" id="img-9426d387-47">
            <path d="M69.82,-29.56 L65.01,-27.84 60.19,-26.03 55.38,-24.11 50.56,-22.09 45.75,-19.97 40.93,-17.73 36.12,-15.38 31.3,-12.91 26.49,-10.33 21.67,-7.64 16.85,-4.82 12.04,-1.9 7.22,1.14 2.41,4.29 -2.41,7.54 -7.22,10.89 -12.04,14.33 -16.85,17.85 -21.67,21.42 -26.49,25.04 -31.3,28.69 -36.12,32.34 -40.93,35.95 -45.75,39.51 -50.56,42.96 -55.38,46.27 -60.19,49.38 -65.01,52.25 -69.83,54.82 -69.83,53.43 -65.01,50.02 -60.19,46 -55.38,41.52 -50.56,36.74 -45.75,31.76 -40.93,26.66 -36.12,21.53 -31.3,16.41 -26.49,11.35 -21.67,6.39 -16.85,1.55 -12.04,-3.14 -7.22,-7.68 -2.41,-12.04 2.41,-16.22 7.22,-20.22 12.04,-24.04 16.85,-27.68 21.67,-31.14 26.49,-34.42 31.3,-37.53 36.12,-40.48 40.93,-43.26 45.75,-45.89 50.56,-48.37 55.38,-50.72 60.19,-52.92 65.01,-55 69.82,-56.96  z" class="primitive"/>
          </g>
        </g>
        <g stroke-width="0.3" fill="#000000" fill-opacity="0.000" class="geometry" id="img-9426d387-48">
          <g class="color_RGB{N0f8}(0.933,0.0,0.933)" stroke-dasharray="2,1" stroke="#EE00EE" id="img-9426d387-49">
            <g transform="translate(86.18,19.93)" id="img-9426d387-50">
              <path fill="none" d="M-69.82,54.12 L-65.01,51.14 -60.19,47.69 -55.38,43.9 -50.56,39.85 -45.75,35.63 -40.93,31.31 -36.12,26.93 -31.3,22.55 -26.49,18.2 -21.67,13.91 -16.85,9.7 -12.04,5.59 -7.22,1.61 -2.41,-2.25 2.41,-5.97 7.22,-9.54 12.04,-12.97 16.85,-16.25 21.67,-19.39 26.49,-22.38 31.3,-25.22 36.12,-27.93 40.93,-30.49 45.75,-32.93 50.56,-35.23 55.38,-37.41 60.19,-39.48 65.01,-41.42 69.82,-43.26 " class="primitive"/>
            </g>
          </g>
        </g>
        <g class="geometry" id="img-9426d387-51">
          <g class="color_RGB{N0f8}(0.333,0.102,0.545)" stroke-dasharray="2,1" stroke-width="0.13" stroke="#551A8B" id="img-9426d387-52">
            <g transform="translate(50.76,62.53)" id="img-9426d387-53">
              <path fill="none" d="M0,-16.3 L0,16.3 " class="primitive"/>
            </g>
            <g transform="translate(89.03,46.23)" id="img-9426d387-54">
              <path fill="none" d="M0,-32.6 L0,32.6 " class="primitive"/>
            </g>
            <g transform="translate(145.01,29.93)" id="img-9426d387-55">
              <path fill="none" d="M0,-48.9 L0,48.9 " class="primitive"/>
            </g>
          </g>
        </g>
        <g class="geometry" id="img-9426d387-56">
          <g stroke-width="0.3" id="img-9426d387-57">
            <g class="color_RGBA{Float32}(0.0f0,0.0f0,1.0f0,1.0f0)" fill-opacity="1" stroke="#FFFFFF" fill="#0000FF" id="img-9426d387-58">
              <g class="marker" id="img-9426d387-59">
                <g transform="translate(83.77,17.68)" id="img-9426d387-60">
                  <circle cx="0" cy="0" r="0.9" class="primitive"/>
                </g>
              </g>
            </g>
            <g class="color_RGBA{Float32}(0.0f0,0.0f0,1.0f0,1.0f0)" fill-opacity="1" stroke="#FFFFFF" fill="#0000FF" id="img-9426d387-61">
              <g class="marker" id="img-9426d387-62">
                <g transform="translate(78.95,21.68)" id="img-9426d387-63">
                  <circle cx="0" cy="0" r="0.9" class="primitive"/>
                </g>
              </g>
            </g>
            <g class="color_RGBA{Float32}(0.0f0,0.0f0,1.0f0,1.0f0)" fill-opacity="1" stroke="#FFFFFF" fill="#0000FF" id="img-9426d387-64">
              <g class="marker" id="img-9426d387-65">
                <g transform="translate(74.14,25.88)" id="img-9426d387-66">
                  <circle cx="0" cy="0" r="0.9" class="primitive"/>
                </g>
              </g>
            </g>
            <g class="color_RGBA{Float32}(0.0f0,0.0f0,1.0f0,1.0f0)" fill-opacity="1" stroke="#FFFFFF" fill="#0000FF" id="img-9426d387-67">
              <g class="marker" id="img-9426d387-68">
                <g transform="translate(69.32,29.94)" id="img-9426d387-69">
                  <circle cx="0" cy="0" r="0.9" class="primitive"/>
                </g>
              </g>
            </g>
            <g class="color_RGBA{Float32}(0.0f0,0.0f0,1.0f0,1.0f0)" fill-opacity="1" stroke="#FFFFFF" fill="#0000FF" id="img-9426d387-70">
              <g class="marker" id="img-9426d387-71">
                <g transform="translate(64.51,34.32)" id="img-9426d387-72">
                  <circle cx="0" cy="0" r="0.9" class="primitive"/>
                </g>
              </g>
            </g>
            <g class="color_RGBA{Float32}(0.0f0,0.0f0,1.0f0,1.0f0)" fill-opacity="1" stroke="#FFFFFF" fill="#0000FF" id="img-9426d387-73">
              <g class="marker" id="img-9426d387-74">
                <g transform="translate(59.69,38.55)" id="img-9426d387-75">
                  <circle cx="0" cy="0" r="0.9" class="primitive"/>
                </g>
              </g>
            </g>
            <g class="color_RGBA{Float32}(0.0f0,0.0f0,1.0f0,1.0f0)" fill-opacity="1" stroke="#FFFFFF" fill="#0000FF" id="img-9426d387-76">
              <g class="marker" id="img-9426d387-77">
                <g transform="translate(54.87,42.96)" id="img-9426d387-78">
                  <circle cx="0" cy="0" r="0.9" class="primitive"/>
                </g>
              </g>
            </g>
            <g class="color_RGBA{Float32}(0.0f0,0.0f0,1.0f0,1.0f0)" fill-opacity="1" stroke="#FFFFFF" fill="#0000FF" id="img-9426d387-79">
              <g class="marker" id="img-9426d387-80">
                <g transform="translate(50.06,47.1)" id="img-9426d387-81">
                  <circle cx="0" cy="0" r="0.9" class="primitive"/>
                </g>
              </g>
            </g>
            <g class="color_RGBA{Float32}(0.0f0,0.0f0,1.0f0,1.0f0)" fill-opacity="1" stroke="#FFFFFF" fill="#0000FF" id="img-9426d387-82">
              <g class="marker" id="img-9426d387-83">
                <g transform="translate(45.24,51.23)" id="img-9426d387-84">
                  <circle cx="0" cy="0" r="0.9" class="primitive"/>
                </g>
              </g>
            </g>
            <g class="color_RGBA{Float32}(0.0f0,0.0f0,1.0f0,1.0f0)" fill-opacity="1" stroke="#FFFFFF" fill="#0000FF" id="img-9426d387-85">
              <g class="marker" id="img-9426d387-86">
                <g transform="translate(40.43,55.52)" id="img-9426d387-87">
                  <circle cx="0" cy="0" r="0.9" class="primitive"/>
                </g>
              </g>
            </g>
            <g class="color_RGBA{Float32}(0.0f0,0.0f0,1.0f0,1.0f0)" fill-opacity="1" stroke="#FFFFFF" fill="#0000FF" id="img-9426d387-88">
              <g class="marker" id="img-9426d387-89">
                <g transform="translate(35.61,59.43)" id="img-9426d387-90">
                  <circle cx="0" cy="0" r="0.9" class="primitive"/>
                </g>
              </g>
            </g>
            <g class="color_RGBA{Float32}(0.0f0,0.0f0,1.0f0,1.0f0)" fill-opacity="1" stroke="#FFFFFF" fill="#0000FF" id="img-9426d387-91">
              <g class="marker" id="img-9426d387-92">
                <g transform="translate(30.8,63.43)" id="img-9426d387-93">
                  <circle cx="0" cy="0" r="0.9" class="primitive"/>
                </g>
              </g>
            </g>
            <g class="color_RGBA{Float32}(0.0f0,0.0f0,1.0f0,1.0f0)" fill-opacity="1" stroke="#FFFFFF" fill="#0000FF" id="img-9426d387-94">
              <g class="marker" id="img-9426d387-95">
                <g transform="translate(25.98,67.43)" id="img-9426d387-96">
                  <circle cx="0" cy="0" r="0.9" class="primitive"/>
                </g>
              </g>
            </g>
            <g class="color_RGBA{Float32}(0.0f0,0.0f0,1.0f0,1.0f0)" fill-opacity="1" stroke="#FFFFFF" fill="#0000FF" id="img-9426d387-97">
              <g class="marker" id="img-9426d387-98">
                <g transform="translate(21.17,71.09)" id="img-9426d387-99">
                  <circle cx="0" cy="0" r="0.9" class="primitive"/>
                </g>
              </g>
            </g>
            <g class="color_RGBA{Float32}(0.0f0,0.0f0,1.0f0,1.0f0)" fill-opacity="1" stroke="#FFFFFF" fill="#0000FF" id="img-9426d387-100">
              <g class="marker" id="img-9426d387-101">
                <g transform="translate(16.35,75.09)" id="img-9426d387-102">
                  <circle cx="0" cy="0" r="0.9" class="primitive"/>
                </g>
              </g>
            </g>
          </g>
        </g>
        <g stroke-width="0.3" fill="#000000" fill-opacity="0.000" class="geometry" id="img-9426d387-103">
          <g class="color_RGB{N0f8}(0.0,0.0,1.0)" stroke-dasharray="none" stroke="#0000FF" id="img-9426d387-104">
            <g transform="translate(50.06,46.76)" id="img-9426d387-105">
              <path fill="none" d="M-33.71,28.33 L-28.89,24.33 -24.08,20.68 -19.26,16.67 -14.45,12.67 -9.63,8.77 -4.82,4.48 0,0.34 4.82,-3.79 9.63,-8.2 14.45,-12.44 19.26,-16.81 24.08,-20.88 28.89,-25.08 33.71,-29.07 " class="primitive"/>
            </g>
          </g>
        </g>
        <g class="geometry" id="img-9426d387-106">
          <g class="color_RGB{N0f8}(1.0,0.0,0.0)" stroke-dasharray="4,1" stroke-width="0.13" stroke="#FF0000" id="img-9426d387-107">
            <g transform="translate(83.77,22.71)" id="img-9426d387-108">
              <path fill="none" d="M72.23,0 L-72.23,0 " class="primitive"/>
            </g>
          </g>
        </g>
        <g class="geometry" id="img-9426d387-109">
          <g stroke-width="0.3" id="img-9426d387-110">
            <g class="color_RGBA{Float32}(0.0f0,0.0f0,1.0f0,1.0f0)" fill-opacity="1" stroke="#FFFFFF" fill="#0000FF" id="img-9426d387-111">
              <g class="marker" id="img-9426d387-112">
                <g transform="translate(83.77,17.68)" id="img-9426d387-113">
                  <path d="M-0.8,0 L-2,-2 0,-0.8 2,-2 0.8,0 2,2 0,0.8 -2,2  z" class="primitive"/>
                </g>
              </g>
            </g>
          </g>
        </g>
        <g class="geometry" stroke="#000000" stroke-opacity="0.000" fill="#0000FF" font-size="2.65" font-family="'PT Sans Caption','Helvetica Neue','Helvetica',sans-serif" id="img-9426d387-114">
          <g class="marker" id="img-9426d387-115">
            <g transform="translate(83.77,17.68)" id="img-9426d387-116">
              <g class="primitive">
                <text dy="0.35em" transform="translate(3,0)">当前动力水平</text>
              </g>
            </g>
          </g>
        </g>
      </g>
      <g class="geometry" id="img-9426d387-117">
        <g font-size="2.65" fill="#551A8B" id="img-9426d387-118">
          <g transform="translate(28.74,75.83)" id="img-9426d387-119">
            <g class="primitive">
              <text dy="-0em">发展期</text>
            </g>
          </g>
          <g transform="translate(67.49,75.83)" id="img-9426d387-120">
            <g class="primitive">
              <text dy="-0em">蓬勃期</text>
            </g>
          </g>
          <g transform="translate(114.61,75.83)" id="img-9426d387-121">
            <g class="primitive">
              <text dy="-0em">持续期</text>
            </g>
          </g>
          <g transform="translate(148.1,75.83)" id="img-9426d387-122">
            <g class="primitive">
              <text dy="-0em">嬗变期</text>
            </g>
          </g>
        </g>
      </g>
      <g class="geometry" id="img-9426d387-123">
        <g font-size="2.65" fill="#FF0000" id="img-9426d387-124">
          <g transform="translate(18.76,21.96)" id="img-9426d387-125">
            <g class="primitive">
              <text dy="-0em">学科总体发文动力参考线</text>
            </g>
          </g>
        </g>
      </g>
      <g class="geometry" id="img-9426d387-126">
        <g font-size="2.51" fill="#551A8B" id="img-9426d387-127">
          <g transform="translate(22.97,13.82)" id="img-9426d387-128">
            <g class="primitive">
              <text dy="-0em">拟合拐点年份：2014</text>
            </g>
          </g>
        </g>
      </g>
      <g class="geometry" id="img-9426d387-129">
        <g font-size="2.47" id="img-9426d387-130">
          <g class="guide colorkey" id="img-9426d387-131">
            <g fill="#4C404B" font-size="2.82" font-family="'PT Sans','Helvetica Neue','Helvetica',sans-serif" id="img-9426d387-132">
              <g transform="translate(22.4,4.6)" id="img-9426d387-133">
                <g class="primitive">
                  <text dy="0.35em">实际曲线</text>
                </g>
              </g>
              <g transform="translate(22.4,8.78)" id="img-9426d387-134">
                <g class="primitive">
                  <text dy="0.35em">拟合曲线（K = 34.855; b = 0.809; γ = 0.067）</text>
                </g>
              </g>
            </g>
            <g stroke-width="0.3" id="img-9426d387-135">
              <g stroke="#FFFFFF" fill-opacity="1" fill="#EE00EE" id="img-9426d387-136">
                <g transform="translate(19.31,8.78)" id="img-9426d387-137">
                  <circle cx="0" cy="0" r="0.9" class="primitive"/>
                </g>
              </g>
              <g stroke="#FFFFFF" fill-opacity="1" fill="#0000FF" id="img-9426d387-138">
                <g transform="translate(19.31,4.6)" id="img-9426d387-139">
                  <circle cx="0" cy="0" r="0.9" class="primitive"/>
                </g>
              </g>
            </g>
            <g fill="#362A35" font-size="3.88" font-family="'PT Sans','Helvetica Neue','Helvetica',sans-serif" stroke="#000000" stroke-opacity="0.000" id="img-9426d387-140">
              <g transform="translate(18.22,1.02)" id="img-9426d387-141">
                <g class="primitive">
                  <text dy="-0em"></text>
                </g>
              </g>
            </g>
          </g>
        </g>
      </g>
    </g>
  </g>
  <g class="guide ylabels" font-size="2.38" font-family="'PT Sans Caption','Helvetica Neue','Helvetica',sans-serif" fill="#6C606B" id="img-9426d387-142">
    <g transform="translate(13.35,78.83)" id="img-9426d387-143">
      <g class="primitive">
        <text text-anchor="end" dy="0.35em">0</text>
      </g>
    </g>
    <g transform="translate(13.35,60.12)" id="img-9426d387-144">
      <g class="primitive">
        <text text-anchor="end" dy="0.35em">5</text>
      </g>
    </g>
    <g transform="translate(13.35,41.41)" id="img-9426d387-145">
      <g class="primitive">
        <text text-anchor="end" dy="0.35em">10</text>
      </g>
    </g>
    <g transform="translate(13.35,22.71)" id="img-9426d387-146">
      <g class="primitive">
        <text text-anchor="end" dy="0.35em">15</text>
      </g>
    </g>
    <g transform="translate(13.35,4)" id="img-9426d387-147">
      <g class="primitive">
        <text text-anchor="end" dy="0.35em">20</text>
      </g>
    </g>
  </g>
  <g font-size="2.51" font-family="'PT Sans','Helvetica Neue','Helvetica',sans-serif" fill="#564A55" stroke="#000000" stroke-opacity="0.000" id="img-9426d387-148">
    <g transform="translate(5.23,39.41)" id="img-9426d387-149">
      <g class="primitive">
        <text text-anchor="middle" dy="0.35em" transform="rotate(-90,0, 2)">主题社区（#3）相对自然趋势的累积生长动力</text>
      </g>
    </g>
  </g>
</g>
<defs>
  <clipPath id="img-9426d387-4">
    <path d="M14.35,2 L158,2 158,80.83 14.35,80.83 " />
  </clipPath>
</defs>
</svg>
